<?xml version="1.0" encoding="utf-8" standalone="no"?>
<!DOCTYPE svg PUBLIC "-//W3C//DTD SVG 1.1//EN"
  "http://www.w3.org/Graphics/SVG/1.1/DTD/svg11.dtd">
<!-- Created with matplotlib (http://matplotlib.org/) -->
<svg height="432pt" version="1.1" viewBox="0 0 864 432" width="864pt" xmlns="http://www.w3.org/2000/svg" xmlns:xlink="http://www.w3.org/1999/xlink">
 <defs>
  <style type="text/css">
*{stroke-linecap:butt;stroke-linejoin:round;}
  </style>
 </defs>
 <g id="figure_1">
  <g id="patch_1">
   <path d="
M0 432
L864 432
L864 0
L0 0
z
" style="fill:#ffffff;"/>
  </g>
  <g id="axes_1">
   <g id="patch_2">
    <path d="
M108 378
L777.6 378
L777.6 43.2
L108 43.2
z
" style="fill:#ffffff;"/>
   </g>
   <g id="matplotlib.axis_1">
    <g id="xtick_1">
     <g id="line2d_1">
      <defs>
       <path d="
M0 0
L0 6" id="m21bce50ef9" style="stroke:#262626;stroke-width:0.8;"/>
      </defs>
      <g>
       <use style="fill:#262626;stroke:#262626;stroke-width:0.8;" x="108.0" xlink:href="#m21bce50ef9" y="388.0"/>
      </g>
     </g>
     <g id="text_1">
      <!-- 0 -->
      <defs>
       <path d="
M27.4375 71.875
Q37.8438 71.875 43.7031 64.4531
Q50.6875 55.6719 50.6875 35.2969
Q50.6875 14.9844 43.6562 6.10938
Q37.8438 -1.21875 27.4375 -1.21875
Q17 -1.21875 10.5938 6.8125
Q4.20312 14.8438 4.20312 35.4531
Q4.20312 55.6719 11.2344 64.5469
Q17.0469 71.875 27.4375 71.875
M27.4375 60.5
Q24.9531 60.5 23 58.9062
Q21.0469 57.3281 19.9688 53.2188
Q18.5625 47.9062 18.5625 35.2969
Q18.5625 22.7031 19.8281 17.9844
Q21.0938 13.2812 23.0156 11.7188
Q24.9531 10.1562 27.4375 10.1562
Q29.9375 10.1562 31.8906 11.7344
Q33.8438 13.3281 34.9062 17.4375
Q36.3281 22.7031 36.3281 35.2969
Q36.3281 47.9062 35.0625 52.6094
Q33.7969 57.3281 31.8594 58.9062
Q29.9375 60.5 27.4375 60.5" id="Arial-BoldMT-30"/>
      </defs>
      <g style="fill:#262626;" transform="translate(104.28125 411.0525)scale(0.16 -0.16)">
       <use xlink:href="#Arial-BoldMT-30"/>
      </g>
     </g>
    </g>
    <g id="xtick_2">
     <g id="line2d_2">
      <g>
       <use style="fill:#262626;stroke:#262626;stroke-width:0.8;" x="275.4" xlink:href="#m21bce50ef9" y="388.0"/>
      </g>
     </g>
     <g id="text_2">
      <!-- 50 -->
      <defs>
       <path d="
M4.4375 18.4062
L18.1094 19.8281
Q18.7031 15.1875 21.5781 12.4688
Q24.4688 9.76562 28.2188 9.76562
Q32.5156 9.76562 35.5 13.25
Q38.4844 16.75 38.4844 23.7812
Q38.4844 30.375 35.5156 33.6719
Q32.5625 36.9688 27.8281 36.9688
Q21.9219 36.9688 17.2344 31.7344
L6.10938 33.3438
L13.1406 70.6094
L49.4219 70.6094
L49.4219 57.7656
L23.5312 57.7656
L21.3906 45.6094
Q25.9844 47.9062 30.7656 47.9062
Q39.8906 47.9062 46.2344 41.2656
Q52.5938 34.625 52.5938 24.0312
Q52.5938 15.1875 47.4688 8.25
Q40.4844 -1.21875 28.0781 -1.21875
Q18.1719 -1.21875 11.9219 4.09375
Q5.67188 9.42188 4.4375 18.4062" id="Arial-BoldMT-35"/>
      </defs>
      <g style="fill:#262626;" transform="translate(267.25125 411.0525)scale(0.16 -0.16)">
       <use xlink:href="#Arial-BoldMT-35"/>
       <use x="55.615234375" xlink:href="#Arial-BoldMT-30"/>
      </g>
     </g>
    </g>
    <g id="xtick_3">
     <g id="line2d_3">
      <g>
       <use style="fill:#262626;stroke:#262626;stroke-width:0.8;" x="442.8" xlink:href="#m21bce50ef9" y="388.0"/>
      </g>
     </g>
     <g id="text_3">
      <!-- 100 -->
      <defs>
       <path d="
M39.3594 0
L25.6406 0
L25.6406 51.7031
Q18.1094 44.6719 7.90625 41.3125
L7.90625 53.7656
Q13.2812 55.5156 19.5781 60.4219
Q25.875 65.3281 28.2188 71.875
L39.3594 71.875
z
" id="Arial-BoldMT-31"/>
      </defs>
      <g style="fill:#262626;" transform="translate(430.48 411.0525)scale(0.16 -0.16)">
       <use xlink:href="#Arial-BoldMT-31"/>
       <use x="55.615234375" xlink:href="#Arial-BoldMT-30"/>
       <use x="111.23046875" xlink:href="#Arial-BoldMT-30"/>
      </g>
     </g>
    </g>
    <g id="xtick_4">
     <g id="line2d_4">
      <g>
       <use style="fill:#262626;stroke:#262626;stroke-width:0.8;" x="610.2" xlink:href="#m21bce50ef9" y="388.0"/>
      </g>
     </g>
     <g id="text_4">
      <!-- 150 -->
      <g style="fill:#262626;" transform="translate(597.88 411.0525)scale(0.16 -0.16)">
       <use xlink:href="#Arial-BoldMT-31"/>
       <use x="55.615234375" xlink:href="#Arial-BoldMT-35"/>
       <use x="111.23046875" xlink:href="#Arial-BoldMT-30"/>
      </g>
     </g>
    </g>
    <g id="xtick_5">
     <g id="line2d_5">
      <g>
       <use style="fill:#262626;stroke:#262626;stroke-width:0.8;" x="777.6" xlink:href="#m21bce50ef9" y="388.0"/>
      </g>
     </g>
     <g id="text_5">
      <!-- 200 -->
      <defs>
       <path d="
M50.5938 12.75
L50.5938 0
L2.48438 0
Q3.26562 7.23438 7.17188 13.7031
Q11.0781 20.1719 22.6094 30.8594
Q31.8906 39.5 33.9844 42.5781
Q36.8125 46.8281 36.8125 50.9844
Q36.8125 55.5625 34.3438 58.0312
Q31.8906 60.5 27.5469 60.5
Q23.25 60.5 20.7031 57.9062
Q18.1719 55.3281 17.7812 49.3125
L4.10938 50.6875
Q5.32812 62.0156 11.7656 66.9375
Q18.2188 71.875 27.875 71.875
Q38.4844 71.875 44.5312 66.1562
Q50.5938 60.4531 50.5938 51.9531
Q50.5938 47.125 48.8594 42.75
Q47.125 38.375 43.3594 33.5938
Q40.875 30.4219 34.375 24.4531
Q27.875 18.5 26.1406 16.5469
Q24.4219 14.5938 23.3438 12.75
z
" id="Arial-BoldMT-32"/>
      </defs>
      <g style="fill:#262626;" transform="translate(764.84625 411.0525)scale(0.16 -0.16)">
       <use xlink:href="#Arial-BoldMT-32"/>
       <use x="55.615234375" xlink:href="#Arial-BoldMT-30"/>
       <use x="111.23046875" xlink:href="#Arial-BoldMT-30"/>
      </g>
     </g>
    </g>
    <g id="text_6">
     <!-- epochs -->
     <defs>
      <path d="
M40.4375 19
L49.0781 17.875
Q47.6562 8.9375 41.8125 3.875
Q35.9844 -1.17188 27.4844 -1.17188
Q16.8438 -1.17188 10.375 5.78125
Q3.90625 12.75 3.90625 25.7344
Q3.90625 34.125 6.6875 40.4219
Q9.46875 46.7344 15.1562 49.875
Q20.8438 53.0312 27.5469 53.0312
Q35.9844 53.0312 41.3594 48.75
Q46.7344 44.4844 48.25 36.625
L39.7031 35.2969
Q38.4844 40.5312 35.375 43.1562
Q32.2812 45.7969 27.875 45.7969
Q21.2344 45.7969 17.0781 41.0312
Q12.9375 36.2812 12.9375 25.9844
Q12.9375 15.5312 16.9375 10.7969
Q20.9531 6.0625 27.3906 6.0625
Q32.5625 6.0625 36.0312 9.23438
Q39.5 12.4062 40.4375 19" id="ArialMT-63"/>
      <path d="
M42.0938 16.7031
L51.1719 15.5781
Q49.0312 7.625 43.2188 3.21875
Q37.4062 -1.17188 28.375 -1.17188
Q17 -1.17188 10.3281 5.82812
Q3.65625 12.8438 3.65625 25.4844
Q3.65625 38.5781 10.3906 45.7969
Q17.1406 53.0312 27.875 53.0312
Q38.2812 53.0312 44.875 45.9531
Q51.4688 38.875 51.4688 26.0312
Q51.4688 25.25 51.4219 23.6875
L12.75 23.6875
Q13.2344 15.1406 17.5781 10.5938
Q21.9219 6.0625 28.4219 6.0625
Q33.25 6.0625 36.6719 8.59375
Q40.0938 11.1406 42.0938 16.7031
M13.2344 30.9062
L42.1875 30.9062
Q41.6094 37.4531 38.875 40.7188
Q34.6719 45.7969 27.9844 45.7969
Q21.9219 45.7969 17.7969 41.75
Q13.6719 37.7031 13.2344 30.9062" id="ArialMT-65"/>
      <path d="
M6.59375 0
L6.59375 71.5781
L15.375 71.5781
L15.375 45.9062
Q21.5312 53.0312 30.9062 53.0312
Q36.6719 53.0312 40.9219 50.75
Q45.1719 48.4844 47 44.4844
Q48.8281 40.4844 48.8281 32.8594
L48.8281 0
L40.0469 0
L40.0469 32.8594
Q40.0469 39.4531 37.1875 42.4531
Q34.3281 45.4531 29.1094 45.4531
Q25.2031 45.4531 21.75 43.4219
Q18.3125 41.4062 16.8438 37.9375
Q15.375 34.4688 15.375 28.375
L15.375 0
z
" id="ArialMT-68"/>
      <path d="
M6.59375 -19.875
L6.59375 51.8594
L14.5938 51.8594
L14.5938 45.125
Q17.4375 49.0781 21 51.0469
Q24.5625 53.0312 29.6406 53.0312
Q36.2812 53.0312 41.3594 49.6094
Q46.4375 46.1875 49.0156 39.9531
Q51.6094 33.7344 51.6094 26.3125
Q51.6094 18.3594 48.75 11.9844
Q45.9062 5.60938 40.4531 2.21875
Q35.0156 -1.17188 29 -1.17188
Q24.6094 -1.17188 21.1094 0.6875
Q17.625 2.54688 15.375 5.375
L15.375 -19.875
z

M14.5469 25.6406
Q14.5469 15.625 18.5938 10.8438
Q22.6562 6.0625 28.4219 6.0625
Q34.2812 6.0625 38.4531 11.0156
Q42.625 15.9688 42.625 26.375
Q42.625 36.2812 38.5469 41.2031
Q34.4688 46.1406 28.8125 46.1406
Q23.1875 46.1406 18.8594 40.8906
Q14.5469 35.6406 14.5469 25.6406" id="ArialMT-70"/>
      <path d="
M3.07812 15.4844
L11.7656 16.8438
Q12.5 11.625 15.8438 8.84375
Q19.1875 6.0625 25.2031 6.0625
Q31.25 6.0625 34.1719 8.51562
Q37.1094 10.9844 37.1094 14.3125
Q37.1094 17.2812 34.5156 19
Q32.7188 20.1719 25.5312 21.9688
Q15.875 24.4219 12.1406 26.2031
Q8.40625 27.9844 6.46875 31.125
Q4.54688 34.2812 4.54688 38.0938
Q4.54688 41.5469 6.125 44.5
Q7.71875 47.4688 10.4531 49.4219
Q12.5 50.9219 16.0312 51.9688
Q19.5781 53.0312 23.6406 53.0312
Q29.7344 53.0312 34.3438 51.2656
Q38.9688 49.5156 41.1562 46.5
Q43.3594 43.5 44.1875 38.4844
L35.5938 37.3125
Q35.0156 41.3125 32.2031 43.5469
Q29.3906 45.7969 24.2656 45.7969
Q18.2188 45.7969 15.625 43.7969
Q13.0312 41.7969 13.0312 39.1094
Q13.0312 37.4062 14.1094 36.0312
Q15.1875 34.625 17.4844 33.6875
Q18.7969 33.2031 25.25 31.4531
Q34.5781 28.9531 38.25 27.3594
Q41.9375 25.7812 44.0312 22.75
Q46.1406 19.7344 46.1406 15.2344
Q46.1406 10.8438 43.5781 6.95312
Q41.0156 3.07812 36.1719 0.953125
Q31.3438 -1.17188 25.25 -1.17188
Q15.1406 -1.17188 9.84375 3.03125
Q4.54688 7.23438 3.07812 15.4844" id="ArialMT-73"/>
      <path d="
M3.32812 25.9219
Q3.32812 40.3281 11.3281 47.2656
Q18.0156 53.0312 27.6406 53.0312
Q38.3281 53.0312 45.1094 46.0156
Q51.9062 39.0156 51.9062 26.6562
Q51.9062 16.6562 48.9062 10.9062
Q45.9062 5.17188 40.1562 2
Q34.4219 -1.17188 27.6406 -1.17188
Q16.75 -1.17188 10.0312 5.8125
Q3.32812 12.7969 3.32812 25.9219
M12.3594 25.9219
Q12.3594 15.9688 16.7031 11.0156
Q21.0469 6.0625 27.6406 6.0625
Q34.1875 6.0625 38.5312 11.0312
Q42.875 16.0156 42.875 26.2188
Q42.875 35.8438 38.5 40.7969
Q34.125 45.75 27.6406 45.75
Q21.0469 45.75 16.7031 40.8125
Q12.3594 35.8906 12.3594 25.9219" id="ArialMT-6f"/>
     </defs>
     <g style="fill:#262626;" transform="translate(415.086875 431.80775)scale(0.176 -0.176)">
      <use xlink:href="#ArialMT-65"/>
      <use x="55.615234375" xlink:href="#ArialMT-70"/>
      <use x="111.23046875" xlink:href="#ArialMT-6f"/>
      <use x="166.845703125" xlink:href="#ArialMT-63"/>
      <use x="216.845703125" xlink:href="#ArialMT-68"/>
      <use x="272.4609375" xlink:href="#ArialMT-73"/>
     </g>
    </g>
   </g>
   <g id="matplotlib.axis_2">
    <g id="ytick_1">
     <g id="line2d_6">
      <defs>
       <path d="
M0 0
L-6 0" id="mb7b35f69c6" style="stroke:#262626;stroke-width:0.8;"/>
      </defs>
      <g>
       <use style="fill:#262626;stroke:#262626;stroke-width:0.8;" x="98.0" xlink:href="#mb7b35f69c6" y="378.0"/>
      </g>
     </g>
     <g id="text_7">
      <!-- 0 -->
      <g style="fill:#262626;" transform="translate(78.9625 382.1475)scale(0.16 -0.16)">
       <use xlink:href="#Arial-BoldMT-30"/>
      </g>
     </g>
    </g>
    <g id="ytick_2">
     <g id="line2d_7">
      <g>
       <use style="fill:#262626;stroke:#262626;stroke-width:0.8;" x="98.0" xlink:href="#mb7b35f69c6" y="311.04"/>
      </g>
     </g>
     <g id="text_8">
      <!-- 20 -->
      <g style="fill:#262626;" transform="translate(69.79 315.1875)scale(0.16 -0.16)">
       <use xlink:href="#Arial-BoldMT-32"/>
       <use x="55.615234375" xlink:href="#Arial-BoldMT-30"/>
      </g>
     </g>
    </g>
    <g id="ytick_3">
     <g id="line2d_8">
      <g>
       <use style="fill:#262626;stroke:#262626;stroke-width:0.8;" x="98.0" xlink:href="#mb7b35f69c6" y="244.08"/>
      </g>
     </g>
     <g id="text_9">
      <!-- 40 -->
      <defs>
       <path d="
M31.1562 0
L31.1562 14.4062
L1.85938 14.4062
L1.85938 26.4219
L32.9062 71.875
L44.4375 71.875
L44.4375 26.4688
L53.3281 26.4688
L53.3281 14.4062
L44.4375 14.4062
L44.4375 0
z

M31.1562 26.4688
L31.1562 50.9219
L14.7031 26.4688
z
" id="Arial-BoldMT-34"/>
      </defs>
      <g style="fill:#262626;" transform="translate(69.69 248.2275)scale(0.16 -0.16)">
       <use xlink:href="#Arial-BoldMT-34"/>
       <use x="55.615234375" xlink:href="#Arial-BoldMT-30"/>
      </g>
     </g>
    </g>
    <g id="ytick_4">
     <g id="line2d_9">
      <g>
       <use style="fill:#262626;stroke:#262626;stroke-width:0.8;" x="98.0" xlink:href="#mb7b35f69c6" y="177.12"/>
      </g>
     </g>
     <g id="text_10">
      <!-- 60 -->
      <defs>
       <path d="
M50.7344 54.0469
L37.4531 52.5938
Q36.9688 56.6875 34.9062 58.6406
Q32.8594 60.5938 29.5938 60.5938
Q25.25 60.5938 22.2344 56.6875
Q19.2344 52.7812 18.4531 40.4375
Q23.5781 46.4844 31.2031 46.4844
Q39.7969 46.4844 45.9219 39.9375
Q52.0469 33.4062 52.0469 23.0469
Q52.0469 12.0625 45.5938 5.42188
Q39.1562 -1.21875 29.0469 -1.21875
Q18.2188 -1.21875 11.2344 7.20312
Q4.25 15.625 4.25 34.8125
Q4.25 54.5 11.5156 63.1875
Q18.7969 71.875 30.4219 71.875
Q38.5781 71.875 43.9219 67.3125
Q49.2656 62.75 50.7344 54.0469
M19.625 24.125
Q19.625 17.4375 22.7031 13.7969
Q25.7812 10.1562 29.7344 10.1562
Q33.5469 10.1562 36.0781 13.125
Q38.625 16.1094 38.625 22.9062
Q38.625 29.8906 35.8906 33.125
Q33.1562 36.375 29.0469 36.375
Q25.0938 36.375 22.3594 33.2656
Q19.625 30.1719 19.625 24.125" id="Arial-BoldMT-36"/>
      </defs>
      <g style="fill:#262626;" transform="translate(70.0725 181.2675)scale(0.16 -0.16)">
       <use xlink:href="#Arial-BoldMT-36"/>
       <use x="55.615234375" xlink:href="#Arial-BoldMT-30"/>
      </g>
     </g>
    </g>
    <g id="ytick_5">
     <g id="line2d_10">
      <g>
       <use style="fill:#262626;stroke:#262626;stroke-width:0.8;" x="98.0" xlink:href="#mb7b35f69c6" y="110.16"/>
      </g>
     </g>
     <g id="text_11">
      <!-- 80 -->
      <defs>
       <path d="
M16.0156 38.625
Q10.6875 40.875 8.26562 44.7969
Q5.85938 48.7344 5.85938 53.4219
Q5.85938 61.4219 11.4531 66.6406
Q17.0469 71.875 27.3438 71.875
Q37.5469 71.875 43.1875 66.6406
Q48.8281 61.4219 48.8281 53.4219
Q48.8281 48.4375 46.2344 44.5469
Q43.6562 40.6719 38.9688 38.625
Q44.9219 36.2344 48.0156 31.6406
Q51.125 27.0469 51.125 21.0469
Q51.125 11.1406 44.7969 4.9375
Q38.4844 -1.26562 27.9844 -1.26562
Q18.2188 -1.26562 11.7188 3.85938
Q4.04688 9.90625 4.04688 20.4531
Q4.04688 26.2656 6.92188 31.125
Q9.8125 35.9844 16.0156 38.625
M18.8438 52.4375
Q18.8438 48.3438 21.1562 46.0469
Q23.4844 43.75 27.3438 43.75
Q31.25 43.75 33.5938 46.0625
Q35.9375 48.3906 35.9375 52.4844
Q35.9375 56.3438 33.6094 58.6562
Q31.2969 60.9844 27.4844 60.9844
Q23.5312 60.9844 21.1875 58.6406
Q18.8438 56.2969 18.8438 52.4375
M17.5781 21.7812
Q17.5781 16.1094 20.4844 12.9375
Q23.3906 9.76562 27.7344 9.76562
Q31.9844 9.76562 34.7656 12.8125
Q37.5469 15.875 37.5469 21.625
Q37.5469 26.6562 34.7188 29.7031
Q31.8906 32.7656 27.5469 32.7656
Q22.5156 32.7656 20.0469 29.2969
Q17.5781 25.8281 17.5781 21.7812" id="Arial-BoldMT-38"/>
      </defs>
      <g style="fill:#262626;" transform="translate(70.04 114.3075)scale(0.16 -0.16)">
       <use xlink:href="#Arial-BoldMT-38"/>
       <use x="55.615234375" xlink:href="#Arial-BoldMT-30"/>
      </g>
     </g>
    </g>
    <g id="ytick_6">
     <g id="line2d_11">
      <g>
       <use style="fill:#262626;stroke:#262626;stroke-width:0.8;" x="98.0" xlink:href="#mb7b35f69c6" y="43.2"/>
      </g>
     </g>
     <g id="text_12">
      <!-- 100 -->
      <g style="fill:#262626;" transform="translate(61.76 47.3475)scale(0.16 -0.16)">
       <use xlink:href="#Arial-BoldMT-31"/>
       <use x="55.615234375" xlink:href="#Arial-BoldMT-30"/>
       <use x="111.23046875" xlink:href="#Arial-BoldMT-30"/>
      </g>
     </g>
    </g>
    <g id="text_13">
     <!-- Accuracy (%) -->
     <defs>
      <path d="
M40.4375 6.39062
Q35.5469 2.25 31.0312 0.53125
Q26.5156 -1.17188 21.3438 -1.17188
Q12.7969 -1.17188 8.20312 3
Q3.60938 7.17188 3.60938 13.6719
Q3.60938 17.4844 5.34375 20.625
Q7.07812 23.7812 9.89062 25.6875
Q12.7031 27.5938 16.2188 28.5625
Q18.7969 29.25 24.0312 29.8906
Q34.6719 31.1562 39.7031 32.9062
Q39.75 34.7188 39.75 35.2031
Q39.75 40.5781 37.25 42.7812
Q33.8906 45.75 27.25 45.75
Q21.0469 45.75 18.0938 43.5781
Q15.1406 41.4062 13.7188 35.8906
L5.125 37.0625
Q6.29688 42.5781 8.98438 45.9688
Q11.6719 49.3594 16.75 51.1875
Q21.8281 53.0312 28.5156 53.0312
Q35.1562 53.0312 39.2969 51.4688
Q43.4531 49.9062 45.4062 47.5312
Q47.3594 45.1719 48.1406 41.5469
Q48.5781 39.3125 48.5781 33.4531
L48.5781 21.7344
Q48.5781 9.46875 49.1406 6.21875
Q49.7031 2.98438 51.375 0
L42.1875 0
Q40.8281 2.73438 40.4375 6.39062
M39.7031 26.0312
Q34.9062 24.0781 25.3438 22.7031
Q19.9219 21.9219 17.6719 20.9375
Q15.4375 19.9688 14.2031 18.0938
Q12.9844 16.2188 12.9844 13.9219
Q12.9844 10.4062 15.6406 8.0625
Q18.3125 5.71875 23.4375 5.71875
Q28.5156 5.71875 32.4688 7.9375
Q36.4219 10.1562 38.2812 14.0156
Q39.7031 17 39.7031 22.7969
z
" id="ArialMT-61"/>
      <path d="
M6.20312 -19.9688
L5.21875 -11.7188
Q8.10938 -12.5 10.25 -12.5
Q13.1875 -12.5 14.9375 -11.5156
Q16.7031 -10.5469 17.8281 -8.79688
Q18.6562 -7.46875 20.5156 -2.25
Q20.75 -1.51562 21.2969 -0.09375
L1.60938 51.8594
L11.0781 51.8594
L21.875 21.8281
Q23.9688 16.1094 25.6406 9.8125
Q27.1562 15.875 29.25 21.625
L40.3281 51.8594
L49.125 51.8594
L29.3906 -0.875
Q26.2188 -9.42188 24.4688 -12.6406
Q22.125 -17 19.0938 -19.0156
Q16.0625 -21.0469 11.8594 -21.0469
Q9.32812 -21.0469 6.20312 -19.9688" id="ArialMT-79"/>
      <path d="
M-0.140625 0
L27.3438 71.5781
L37.5469 71.5781
L66.8438 0
L56.0625 0
L47.7031 21.6875
L17.7812 21.6875
L9.90625 0
z

M20.5156 29.3906
L44.7812 29.3906
L37.3125 49.2188
Q33.8906 58.25 32.2344 64.0625
Q30.8594 57.1719 28.375 50.3906
z
" id="ArialMT-41"/>
      <path d="
M40.5781 0
L40.5781 7.625
Q34.5156 -1.17188 24.125 -1.17188
Q19.5312 -1.17188 15.5469 0.578125
Q11.5781 2.34375 9.64062 5
Q7.71875 7.67188 6.9375 11.5312
Q6.39062 14.1094 6.39062 19.7344
L6.39062 51.8594
L15.1875 51.8594
L15.1875 23.0938
Q15.1875 16.2188 15.7188 13.8125
Q16.5469 10.3594 19.2344 8.375
Q21.9219 6.39062 25.875 6.39062
Q29.8281 6.39062 33.2969 8.42188
Q36.7656 10.4531 38.2031 13.9375
Q39.6562 17.4375 39.6562 24.0781
L39.6562 51.8594
L48.4375 51.8594
L48.4375 0
z
" id="ArialMT-75"/>
      <path d="
M6.5 0
L6.5 51.8594
L14.4062 51.8594
L14.4062 44
Q17.4375 49.5156 20 51.2656
Q22.5625 53.0312 25.6406 53.0312
Q30.0781 53.0312 34.6719 50.2031
L31.6406 42.0469
Q28.4219 43.9531 25.2031 43.9531
Q22.3125 43.9531 20.0156 42.2188
Q17.7188 40.4844 16.75 37.4062
Q15.2812 32.7188 15.2812 27.1562
L15.2812 0
z
" id="ArialMT-72"/>
      <path d="
M12.3594 -21.0469
L6.0625 -21.0469
Q20.6562 2.39062 20.6562 25.875
Q20.6562 35.0625 18.5625 44.0938
Q16.8906 51.4219 13.9219 58.1562
Q12.0156 62.5469 6.0625 72.7969
L12.3594 72.7969
Q21.5312 60.5469 25.9219 48.1875
Q29.6875 37.5469 29.6875 25.9219
Q29.6875 12.75 24.625 0.4375
Q19.5781 -11.8594 12.3594 -21.0469" id="ArialMT-29"/>
      <path d="
M23.3906 -21.0469
Q16.1094 -11.8594 11.0781 0.4375
Q6.0625 12.75 6.0625 25.9219
Q6.0625 37.5469 9.8125 48.1875
Q14.2031 60.5469 23.3906 72.7969
L29.6875 72.7969
Q23.7812 62.6406 21.875 58.2969
Q18.8906 51.5625 17.1875 44.2344
Q15.0938 35.1094 15.0938 25.875
Q15.0938 2.39062 29.6875 -21.0469
z
" id="ArialMT-28"/>
      <path d="
M5.8125 54.3906
Q5.8125 62.0625 9.67188 67.4219
Q13.5312 72.7969 20.8438 72.7969
Q27.5938 72.7969 32 67.9844
Q36.4219 63.1875 36.4219 53.8594
Q36.4219 44.7812 31.9531 39.875
Q27.4844 34.9688 20.9531 34.9688
Q14.4531 34.9688 10.125 39.7969
Q5.8125 44.625 5.8125 54.3906
M21.0938 66.75
Q17.8281 66.75 15.6562 63.9062
Q13.4844 61.0781 13.4844 53.5156
Q13.4844 46.625 15.6719 43.8125
Q17.875 41.0156 21.0938 41.0156
Q24.4219 41.0156 26.5938 43.8438
Q28.7656 46.6875 28.7656 54.2031
Q28.7656 61.1406 26.5625 63.9375
Q24.3594 66.75 21.0938 66.75
M21.1406 -2.64062
L60.2969 72.7969
L67.4375 72.7969
L28.4219 -2.64062
z

M52.0938 16.7969
Q52.0938 24.5156 55.9531 29.8594
Q59.8125 35.2031 67.1875 35.2031
Q73.9219 35.2031 78.3438 30.3906
Q82.7656 25.5938 82.7656 16.2656
Q82.7656 7.17188 78.2969 2.26562
Q73.8281 -2.64062 67.2344 -2.64062
Q60.75 -2.64062 56.4219 2.21875
Q52.0938 7.07812 52.0938 16.7969
M67.4375 29.1562
Q64.1094 29.1562 61.9375 26.3125
Q59.7656 23.4844 59.7656 15.9219
Q59.7656 9.07812 61.9531 6.25
Q64.1562 3.42188 67.3906 3.42188
Q70.75 3.42188 72.9219 6.25
Q75.0938 9.07812 75.0938 16.6094
Q75.0938 23.5312 72.8906 26.3438
Q70.7031 29.1562 67.4375 29.1562" id="ArialMT-25"/>
      <path id="ArialMT-20"/>
     </defs>
     <g style="fill:#262626;" transform="translate(53.05575 262.612125)rotate(-90.0)scale(0.176 -0.176)">
      <use xlink:href="#ArialMT-41"/>
      <use x="66.69921875" xlink:href="#ArialMT-63"/>
      <use x="116.69921875" xlink:href="#ArialMT-63"/>
      <use x="166.69921875" xlink:href="#ArialMT-75"/>
      <use x="222.314453125" xlink:href="#ArialMT-72"/>
      <use x="255.615234375" xlink:href="#ArialMT-61"/>
      <use x="311.23046875" xlink:href="#ArialMT-63"/>
      <use x="361.23046875" xlink:href="#ArialMT-79"/>
      <use x="411.23046875" xlink:href="#ArialMT-20"/>
      <use x="439.013671875" xlink:href="#ArialMT-28"/>
      <use x="472.314453125" xlink:href="#ArialMT-25"/>
      <use x="561.23046875" xlink:href="#ArialMT-29"/>
     </g>
    </g>
   </g>
   <g id="line2d_12">
    <path clip-path="url(#pe8a5247557)" d="
M108 43.2
L161.568 43.2
L164.916 46.6875
L168.264 43.2
L359.1 43.2
L362.448 46.6875
L365.796 43.2
L774.252 43.2
L774.252 43.2" style="fill:none;opacity:0.75;stroke:#003fff;stroke-linecap:round;stroke-width:3;"/>
   </g>
   <g id="line2d_13">
    <path clip-path="url(#pe8a5247557)" d="
M108 49.1845
L111.348 47.1234
L114.696 46.4957
L121.392 46.7572
L124.74 46.8096
L128.088 47.2281
L131.436 46.0249
L134.784 46.4957
L138.132 46.4957
L141.48 49.2892
L144.828 47.2804
L148.176 46.7049
L154.872 47.8558
L158.22 46.1295
L161.568 48.4312
L164.916 47.5419
L168.264 47.2281
L171.612 47.1234
L174.96 50.0006
L178.308 47.9081
L181.656 47.9604
L185.004 48.9544
L188.352 48.3266
L191.7 49.3729
L195.048 48.5882
L198.396 48.7974
L201.744 48.222
L205.092 48.6928
L208.44 52.2187
L211.788 49.7914
L215.136 49.1113
L218.484 49.9483
L221.832 49.9483
L225.18 50.4714
L228.528 51.4131
L231.876 51.3084
L235.224 49.059
L238.572 49.4252
L241.92 52.5221
L245.268 49.1113
L248.616 48.9021
L251.964 49.059
L255.312 48.6928
L258.66 48.1697
L262.008 48.9021
L265.356 48.0127
L268.704 48.7974
L272.052 48.4836
L275.4 50.1785
L278.748 48.5359
L282.096 48.3789
L285.444 48.7974
L288.792 47.7512
L292.14 48.3789
L295.488 47.5942
L298.836 47.4373
L302.184 47.5419
L305.532 47.9081
L308.88 50.2203
L312.228 47.7512
L315.576 48.8497
L318.924 49.1636
L322.272 48.4312
L325.62 48.2743
L328.968 47.2281
L332.316 48.0127
L335.664 48.5359
L339.012 47.5942
L342.36 50.0425
L345.708 48.3789
L349.056 46.9665
L352.404 48.4312
L355.752 47.5942
L359.1 47.2804
L362.448 48.4836
L365.796 48.1697
L369.144 46.8619
L372.492 47.6466
L375.84 49.4461
L379.188 48.0127
L382.536 48.0127
L385.884 47.1757
L392.58 47.6466
L395.928 47.2281
L399.276 47.1234
L402.624 47.5942
L405.972 48.5359
L409.32 49.7286
L412.668 47.1757
L419.364 47.6989
L422.712 47.4896
L426.06 47.8558
L429.408 47.8035
L432.756 47.2804
L436.104 47.9081
L439.452 46.8619
L442.8 50.0111
L446.148 47.1234
L449.496 47.0188
L452.844 47.1757
L456.192 47.1757
L459.54 47.4896
L462.888 47.9604
L466.236 48.1174
L469.584 47.1757
L472.932 47.0711
L476.28 50.0529
L482.976 47.1234
L486.324 47.385
L489.672 47.1234
L493.02 46.548
L496.368 46.8096
L499.716 48.222
L503.064 47.0711
L506.412 46.9665
L509.76 49.7181
L513.108 47.8035
L516.456 47.4373
L519.804 47.5419
L523.152 46.6003
L526.5 47.2281
L529.848 46.6003
L533.196 46.2341
L536.544 47.4896
L539.892 47.6466
L543.24 49.5193
L546.588 46.6526
L549.936 47.3327
L553.284 45.711
L556.632 47.1234
L559.98 46.4434
L563.328 45.9202
L566.676 46.3911
L570.024 45.6064
L573.372 45.7633
L576.72 48.0441
L580.068 46.1295
L583.416 45.9726
L586.764 46.2864
L590.112 46.0249
L593.46 46.2864
L596.808 46.9142
L603.504 46.1818
L606.852 46.0249
L610.2 48.8393
L613.548 46.0772
L616.896 46.548
L623.592 45.9726
L626.94 47.2804
L630.288 46.7572
L636.984 45.2402
L640.332 45.9726
L643.68 48.1592
L647.028 46.4957
L650.376 45.7633
L653.724 46.3911
L657.072 45.9726
L667.116 45.5541
L670.464 46.0772
L673.812 45.9202
L677.16 47.5733
L680.508 46.2341
L683.856 46.2864
L687.204 45.2925
L690.552 46.4434
L693.9 45.2402
L697.248 46.4434
L703.944 46.1295
L707.292 46.7572
L710.64 49.1845
L713.988 46.8096
L720.684 47.2281
L724.032 46.7049
L727.38 47.8035
L730.728 47.8558
L734.076 46.3387
L737.424 47.7512
L740.772 47.2281
L744.12 49.5821
L747.468 47.8035
L750.816 47.4373
L754.164 47.4373
L757.512 47.1757
L760.86 47.9081
L767.556 47.8035
L770.904 47.7512
L774.252 48.1697
L774.252 48.1697" style="fill:none;opacity:0.75;stroke:#03ed3a;stroke-linecap:round;stroke-width:3;"/>
   </g>
   <g id="patch_3">
    <path d="
M108 388
L777.6 388" style="fill:none;stroke:#262626;stroke-linecap:square;stroke-linejoin:miter;stroke-width:1.25;"/>
   </g>
   <g id="patch_4">
    <path d="
M98 378
L98 43.2" style="fill:none;stroke:#262626;stroke-linecap:square;stroke-linejoin:miter;stroke-width:1.25;"/>
   </g>
   <g id="text_14">
    <!-- G&amp;D Accuracy -->
    <defs>
     <path d="
M47.5156 8.45312
Q43.1719 3.60938 38.0312 1.1875
Q32.9062 -1.21875 26.9531 -1.21875
Q15.9688 -1.21875 9.51562 6.20312
Q4.29688 12.25 4.29688 19.7344
Q4.29688 26.375 8.5625 31.7188
Q12.8438 37.0625 21.3438 41.1094
Q16.5 46.6875 14.8906 50.1406
Q13.2812 53.6094 13.2812 56.8438
Q13.2812 63.2812 18.3281 68.0312
Q23.3906 72.7969 31.0625 72.7969
Q38.375 72.7969 43.0312 68.2969
Q47.7031 63.8125 47.7031 57.5156
Q47.7031 47.3125 34.1875 40.0938
L47.0156 23.7344
Q49.2188 28.0312 50.4375 33.6875
L59.5781 31.7344
Q57.2344 22.3594 53.2188 16.3125
Q58.1562 9.76562 64.4062 5.32812
L58.5 -1.65625
Q53.1719 1.76562 47.5156 8.45312
M29.6406 45.75
Q35.3594 49.125 37.0312 51.6562
Q38.7188 54.2031 38.7188 57.2812
Q38.7188 60.9375 36.3906 63.25
Q34.0781 65.5781 30.6094 65.5781
Q27.0469 65.5781 24.6719 63.2812
Q22.3125 60.9844 22.3125 57.6719
Q22.3125 56 23.1719 54.1719
Q24.0312 52.3438 25.7344 50.2969
z

M42 15.375
L25.875 35.3594
Q18.75 31.1094 16.25 27.4688
Q13.7656 23.8281 13.7656 20.2656
Q13.7656 15.9219 17.2344 11.2344
Q20.7031 6.54688 27.0469 6.54688
Q31 6.54688 35.2188 9
Q39.4531 11.4688 42 15.375" id="ArialMT-26"/>
     <path d="
M7.71875 0
L7.71875 71.5781
L32.375 71.5781
Q40.7188 71.5781 45.125 70.5625
Q51.2656 69.1406 55.6094 65.4375
Q61.2812 60.6406 64.0781 53.1875
Q66.8906 45.75 66.8906 36.1875
Q66.8906 28.0312 64.9844 21.7344
Q63.0938 15.4375 60.1094 11.2969
Q57.125 7.17188 53.5781 4.79688
Q50.0469 2.4375 45.0469 1.21875
Q40.0469 0 33.5469 0
z

M17.1875 8.45312
L32.4688 8.45312
Q39.5469 8.45312 43.5781 9.76562
Q47.6094 11.0781 50 13.4844
Q53.375 16.8438 55.25 22.5312
Q57.125 28.2188 57.125 36.3281
Q57.125 47.5625 53.4375 53.5938
Q49.75 59.625 44.4844 61.6719
Q40.6719 63.1406 32.2344 63.1406
L17.1875 63.1406
z
" id="ArialMT-44"/>
     <path d="
M41.2188 28.0781
L41.2188 36.4688
L71.5312 36.5312
L71.5312 9.96875
Q64.5469 4.39062 57.125 1.57812
Q49.7031 -1.21875 41.8906 -1.21875
Q31.3438 -1.21875 22.7188 3.29688
Q14.1094 7.8125 9.71875 16.3594
Q5.32812 24.9062 5.32812 35.4531
Q5.32812 45.9062 9.6875 54.9531
Q14.0625 64.0156 22.2656 68.4062
Q30.4688 72.7969 41.1562 72.7969
Q48.9219 72.7969 55.1875 70.2812
Q61.4688 67.7812 65.0312 63.2812
Q68.6094 58.7969 70.4531 51.5625
L61.9219 49.2188
Q60.2969 54.6875 57.9062 57.8125
Q55.5156 60.9375 51.0625 62.8125
Q46.625 64.7031 41.2188 64.7031
Q34.7188 64.7031 29.9844 62.7188
Q25.25 60.75 22.3438 57.5156
Q19.4375 54.2969 17.8281 50.4375
Q15.0938 43.7969 15.0938 36.0312
Q15.0938 26.4688 18.3906 20.0156
Q21.6875 13.5781 27.9844 10.4531
Q34.2812 7.32812 41.3594 7.32812
Q47.5156 7.32812 53.375 9.6875
Q59.2344 12.0625 62.25 14.75
L62.25 28.0781
z
" id="ArialMT-47"/>
    </defs>
    <g style="fill:#262626;" transform="translate(380.4645 38.2)scale(0.192 -0.192)">
     <use xlink:href="#ArialMT-47"/>
     <use x="77.783203125" xlink:href="#ArialMT-26"/>
     <use x="144.482421875" xlink:href="#ArialMT-44"/>
     <use x="216.69921875" xlink:href="#ArialMT-20"/>
     <use x="238.982421875" xlink:href="#ArialMT-41"/>
     <use x="305.681640625" xlink:href="#ArialMT-63"/>
     <use x="355.681640625" xlink:href="#ArialMT-63"/>
     <use x="405.681640625" xlink:href="#ArialMT-75"/>
     <use x="461.296875" xlink:href="#ArialMT-72"/>
     <use x="494.59765625" xlink:href="#ArialMT-61"/>
     <use x="550.212890625" xlink:href="#ArialMT-63"/>
     <use x="600.212890625" xlink:href="#ArialMT-79"/>
    </g>
   </g>
   <g id="legend_1">
    <g id="line2d_14">
     <path d="
M613.048 63.4525
L645.048 63.4525" style="fill:none;opacity:0.75;stroke:#003fff;stroke-linecap:round;stroke-width:3;"/>
    </g>
    <g id="line2d_15"/>
    <g id="text_15">
     <!-- descriminator -->
     <defs>
      <path d="
M2.34375 14.7969
L16.1094 16.8906
Q17 12.8906 19.6719 10.8125
Q22.3594 8.73438 27.2031 8.73438
Q32.5156 8.73438 35.2031 10.6875
Q37.0156 12.0625 37.0156 14.3594
Q37.0156 15.9219 36.0312 16.9375
Q35.0156 17.9219 31.4531 18.75
Q14.8438 22.4062 10.4062 25.4375
Q4.25 29.6406 4.25 37.1094
Q4.25 43.8438 9.5625 48.4375
Q14.8906 53.0312 26.0781 53.0312
Q36.7188 53.0312 41.8906 49.5625
Q47.0781 46.0938 49.0312 39.3125
L36.0781 36.9219
Q35.25 39.9375 32.9219 41.5469
Q30.6094 43.1719 26.3125 43.1719
Q20.9062 43.1719 18.5625 41.6562
Q17 40.5781 17 38.875
Q17 37.4062 18.3594 36.375
Q20.2188 35.0156 31.1719 32.5156
Q42.1406 30.0312 46.4844 26.4219
Q50.7812 22.75 50.7812 16.2188
Q50.7812 9.07812 44.8281 3.95312
Q38.875 -1.17188 27.2031 -1.17188
Q16.6094 -1.17188 10.4219 3.125
Q4.25 7.42188 2.34375 14.7969" id="Arial-BoldMT-73"/>
      <path d="
M20.3125 0
L6.59375 0
L6.59375 51.8594
L19.3438 51.8594
L19.3438 44.4844
Q22.6094 49.7031 25.2188 51.3594
Q27.8281 53.0312 31.1562 53.0312
Q35.8438 53.0312 40.1875 50.4375
L35.9375 38.4844
Q32.4688 40.7188 29.5 40.7188
Q26.6094 40.7188 24.6094 39.125
Q22.6094 37.5469 21.4531 33.3906
Q20.3125 29.25 20.3125 16.0156
z
" id="Arial-BoldMT-72"/>
      <path d="
M52.3906 36.5312
L38.875 34.0781
Q38.1875 38.1406 35.7656 40.1875
Q33.3438 42.2344 29.5 42.2344
Q24.3594 42.2344 21.3125 38.6875
Q18.2656 35.1562 18.2656 26.8594
Q18.2656 17.625 21.3594 13.8125
Q24.4688 10.0156 29.6875 10.0156
Q33.5938 10.0156 36.0781 12.2344
Q38.5781 14.4531 39.5938 19.875
L53.0781 17.5781
Q50.9844 8.29688 45.0156 3.5625
Q39.0625 -1.17188 29.0469 -1.17188
Q17.6719 -1.17188 10.9062 6
Q4.15625 13.1875 4.15625 25.875
Q4.15625 38.7188 10.9375 45.875
Q17.7188 53.0312 29.2969 53.0312
Q38.7656 53.0312 44.3594 48.9531
Q49.9531 44.875 52.3906 36.5312" id="Arial-BoldMT-63"/>
      <path d="
M54.7344 0
L42 0
L42 7.625
Q38.8125 3.17188 34.4844 1
Q30.1719 -1.17188 25.7812 -1.17188
Q16.8438 -1.17188 10.4688 6.03125
Q4.10938 13.2344 4.10938 26.125
Q4.10938 39.3125 10.2969 46.1719
Q16.5 53.0312 25.9844 53.0312
Q34.6719 53.0312 41.0156 45.7969
L41.0156 71.5781
L54.7344 71.5781
z

M18.1094 27.0469
Q18.1094 18.75 20.4062 15.0469
Q23.7344 9.67188 29.6875 9.67188
Q34.4219 9.67188 37.7344 13.6875
Q41.0625 17.7188 41.0625 25.7344
Q41.0625 34.6719 37.8438 38.5938
Q34.625 42.5312 29.5938 42.5312
Q24.7031 42.5312 21.4062 38.6406
Q18.1094 34.7656 18.1094 27.0469" id="Arial-BoldMT-64"/>
      <path d="
M37.2031 16.5
L50.875 14.2031
Q48.25 6.6875 42.5469 2.75
Q36.8594 -1.17188 28.3281 -1.17188
Q14.7969 -1.17188 8.29688 7.67188
Q3.17188 14.75 3.17188 25.5312
Q3.17188 38.4219 9.90625 45.7188
Q16.6562 53.0312 26.9531 53.0312
Q38.5312 53.0312 45.2188 45.3906
Q51.9062 37.75 51.6094 21.9688
L17.2344 21.9688
Q17.3906 15.875 20.5625 12.4688
Q23.7344 9.07812 28.4688 9.07812
Q31.6875 9.07812 33.875 10.8281
Q36.0781 12.5938 37.2031 16.5
M37.9844 30.375
Q37.8438 36.3281 34.9062 39.4219
Q31.9844 42.5312 27.7812 42.5312
Q23.2969 42.5312 20.3594 39.2656
Q17.4375 35.9844 17.4844 30.375
z
" id="Arial-BoldMT-65"/>
      <path d="
M17.4375 36.0312
L4.98438 38.2812
Q7.07812 45.7969 12.2031 49.4062
Q17.3281 53.0312 27.4375 53.0312
Q36.625 53.0312 41.1094 50.8594
Q45.6094 48.6875 47.4375 45.3438
Q49.2656 42 49.2656 33.0625
L49.125 17.0469
Q49.125 10.2031 49.7812 6.95312
Q50.4375 3.71875 52.25 0
L38.6719 0
Q38.1406 1.375 37.3594 4.04688
Q37.0156 5.28125 36.8594 5.67188
Q33.3438 2.25 29.3438 0.53125
Q25.3438 -1.17188 20.7969 -1.17188
Q12.7969 -1.17188 8.17188 3.17188
Q3.5625 7.51562 3.5625 14.1562
Q3.5625 18.5625 5.65625 22
Q7.76562 25.4375 11.5469 27.2656
Q15.3281 29.1094 22.4688 30.4688
Q32.0781 32.2812 35.7969 33.8438
L35.7969 35.2031
Q35.7969 39.1562 33.8438 40.8438
Q31.8906 42.5312 26.4688 42.5312
Q22.7969 42.5312 20.75 41.0938
Q18.7031 39.6562 17.4375 36.0312
M35.7969 24.9062
Q33.1562 24.0312 27.4375 22.7969
Q21.7344 21.5781 19.9688 20.4062
Q17.2812 18.5 17.2812 15.5781
Q17.2812 12.7031 19.4219 10.5938
Q21.5781 8.5 24.9062 8.5
Q28.6094 8.5 31.9844 10.9375
Q34.4688 12.7969 35.25 15.4844
Q35.7969 17.2344 35.7969 22.1719
z
" id="Arial-BoldMT-61"/>
      <path d="
M7.17188 58.8906
L7.17188 71.5781
L20.9062 71.5781
L20.9062 58.8906
z

M7.17188 0
L7.17188 51.8594
L20.9062 51.8594
L20.9062 0
z
" id="Arial-BoldMT-69"/>
      <path d="
M30.9531 51.8594
L30.9531 40.9219
L21.5781 40.9219
L21.5781 20.0156
Q21.5781 13.6719 21.8438 12.625
Q22.125 11.5781 23.0781 10.8906
Q24.0312 10.2031 25.3906 10.2031
Q27.2969 10.2031 30.9062 11.5312
L32.0781 0.875
Q27.2969 -1.17188 21.2344 -1.17188
Q17.5312 -1.17188 14.5469 0.0625
Q11.5781 1.3125 10.1875 3.29688
Q8.79688 5.28125 8.25 8.64062
Q7.8125 11.0312 7.8125 18.3125
L7.8125 40.9219
L1.51562 40.9219
L1.51562 51.8594
L7.8125 51.8594
L7.8125 62.1562
L21.5781 70.1719
L21.5781 51.8594
z
" id="Arial-BoldMT-74"/>
      <path d="
M6.15625 51.8594
L18.7969 51.8594
L18.7969 44.7812
Q25.5938 53.0312 34.9688 53.0312
Q39.9375 53.0312 43.5938 50.9688
Q47.2656 48.9219 49.6094 44.7812
Q53.0312 48.9219 56.9844 50.9688
Q60.9375 53.0312 65.4375 53.0312
Q71.1406 53.0312 75.0938 50.7031
Q79.0469 48.3906 81 43.8906
Q82.4219 40.5781 82.4219 33.1562
L82.4219 0
L68.7031 0
L68.7031 29.6406
Q68.7031 37.3594 67.2812 39.5938
Q65.375 42.5312 61.4219 42.5312
Q58.5469 42.5312 56 40.7656
Q53.4688 39.0156 52.3438 35.625
Q51.2188 32.2344 51.2188 24.9062
L51.2188 0
L37.5 0
L37.5 28.4219
Q37.5 35.9844 36.7656 38.1719
Q36.0312 40.375 34.4844 41.4531
Q32.9531 42.5312 30.3281 42.5312
Q27.1562 42.5312 24.6094 40.8125
Q22.0781 39.1094 20.9688 35.8906
Q19.875 32.6719 19.875 25.2031
L19.875 0
L6.15625 0
z
" id="Arial-BoldMT-6d"/>
      <path d="
M54.3438 0
L40.625 0
L40.625 26.4688
Q40.625 34.8594 39.75 37.3281
Q38.875 39.7969 36.8906 41.1562
Q34.9062 42.5312 32.125 42.5312
Q28.5625 42.5312 25.7344 40.5781
Q22.9062 38.625 21.8438 35.3906
Q20.7969 32.1719 20.7969 23.4844
L20.7969 0
L7.07812 0
L7.07812 51.8594
L19.8281 51.8594
L19.8281 44.2344
Q26.6094 53.0312 36.9219 53.0312
Q41.4531 53.0312 45.2031 51.3906
Q48.9688 49.75 50.8906 47.2031
Q52.8281 44.6719 53.5781 41.4531
Q54.3438 38.2344 54.3438 32.2344
z
" id="Arial-BoldMT-6e"/>
      <path d="
M4 26.6562
Q4 33.5 7.375 39.8906
Q10.75 46.2969 16.9219 49.6562
Q23.0938 53.0312 30.7188 53.0312
Q42.4844 53.0312 50 45.3906
Q57.5156 37.75 57.5156 26.0781
Q57.5156 14.3125 49.9219 6.5625
Q42.3281 -1.17188 30.8125 -1.17188
Q23.6875 -1.17188 17.2188 2.04688
Q10.75 5.28125 7.375 11.5
Q4 17.7188 4 26.6562
M18.0625 25.9219
Q18.0625 18.2188 21.7188 14.1094
Q25.3906 10.0156 30.7656 10.0156
Q36.1406 10.0156 39.7656 14.1094
Q43.4062 18.2188 43.4062 26.0312
Q43.4062 33.6406 39.7656 37.7344
Q36.1406 41.8438 30.7656 41.8438
Q25.3906 41.8438 21.7188 37.7344
Q18.0625 33.6406 18.0625 25.9219" id="Arial-BoldMT-6f"/>
     </defs>
     <g style="fill:#262626;" transform="translate(657.8475 69.0525)scale(0.16 -0.16)">
      <use xlink:href="#Arial-BoldMT-64"/>
      <use x="61.083984375" xlink:href="#Arial-BoldMT-65"/>
      <use x="116.69921875" xlink:href="#Arial-BoldMT-73"/>
      <use x="172.314453125" xlink:href="#Arial-BoldMT-63"/>
      <use x="227.9296875" xlink:href="#Arial-BoldMT-72"/>
      <use x="266.845703125" xlink:href="#Arial-BoldMT-69"/>
      <use x="294.62890625" xlink:href="#Arial-BoldMT-6d"/>
      <use x="383.544921875" xlink:href="#Arial-BoldMT-69"/>
      <use x="411.328125" xlink:href="#Arial-BoldMT-6e"/>
      <use x="472.412109375" xlink:href="#Arial-BoldMT-61"/>
      <use x="528.02734375" xlink:href="#Arial-BoldMT-74"/>
      <use x="561.328125" xlink:href="#Arial-BoldMT-6f"/>
      <use x="622.412109375" xlink:href="#Arial-BoldMT-72"/>
     </g>
    </g>
    <g id="line2d_16">
     <path d="
M613.048 86.0625
L645.048 86.0625" style="fill:none;opacity:0.75;stroke:#03ed3a;stroke-linecap:round;stroke-width:3;"/>
    </g>
    <g id="line2d_17"/>
    <g id="text_16">
     <!-- generator -->
     <defs>
      <path d="
M5.90625 -3.42188
L21.5781 -5.32812
Q21.9688 -8.0625 23.3906 -9.07812
Q25.3438 -10.5469 29.5469 -10.5469
Q34.9062 -10.5469 37.5938 -8.9375
Q39.4062 -7.85938 40.3281 -5.46875
Q40.9688 -3.76562 40.9688 0.828125
L40.9688 8.40625
Q34.8125 0 25.4375 0
Q14.9844 0 8.89062 8.84375
Q4.10938 15.8281 4.10938 26.2188
Q4.10938 39.2656 10.375 46.1406
Q16.6562 53.0312 25.9844 53.0312
Q35.5938 53.0312 41.8438 44.5781
L41.8438 51.8594
L54.6875 51.8594
L54.6875 5.32812
Q54.6875 -3.85938 53.1719 -8.39062
Q51.6562 -12.9375 48.9219 -15.5156
Q46.1875 -18.1094 41.625 -19.5781
Q37.0625 -21.0469 30.0781 -21.0469
Q16.8906 -21.0469 11.375 -16.5312
Q5.85938 -12.0156 5.85938 -5.07812
Q5.85938 -4.39062 5.90625 -3.42188
M18.1719 27
Q18.1719 18.75 21.3594 14.9062
Q24.5625 11.0781 29.25 11.0781
Q34.2812 11.0781 37.75 15.0156
Q41.2188 18.9531 41.2188 26.6562
Q41.2188 34.7188 37.8906 38.625
Q34.5781 42.5312 29.5 42.5312
Q24.5625 42.5312 21.3594 38.6875
Q18.1719 34.8594 18.1719 27" id="Arial-BoldMT-67"/>
     </defs>
     <g style="fill:#262626;" transform="translate(657.8475 91.6625)scale(0.16 -0.16)">
      <use xlink:href="#Arial-BoldMT-67"/>
      <use x="61.083984375" xlink:href="#Arial-BoldMT-65"/>
      <use x="116.69921875" xlink:href="#Arial-BoldMT-6e"/>
      <use x="177.783203125" xlink:href="#Arial-BoldMT-65"/>
      <use x="233.3984375" xlink:href="#Arial-BoldMT-72"/>
      <use x="272.314453125" xlink:href="#Arial-BoldMT-61"/>
      <use x="327.9296875" xlink:href="#Arial-BoldMT-74"/>
      <use x="361.23046875" xlink:href="#Arial-BoldMT-6f"/>
      <use x="422.314453125" xlink:href="#Arial-BoldMT-72"/>
     </g>
    </g>
   </g>
  </g>
 </g>
 <defs>
  <clipPath id="pe8a5247557">
   <rect height="334.8" width="669.6" x="108.0" y="43.2"/>
  </clipPath>
 </defs>
</svg>
