<?xml version="1.0" encoding="utf-8" standalone="no"?>
<!DOCTYPE svg PUBLIC "-//W3C//DTD SVG 1.1//EN"
  "http://www.w3.org/Graphics/SVG/1.1/DTD/svg11.dtd">
<!-- Created with matplotlib (http://matplotlib.org/) -->
<svg height="432pt" version="1.1" viewBox="0 0 864 432" width="864pt" xmlns="http://www.w3.org/2000/svg" xmlns:xlink="http://www.w3.org/1999/xlink">
 <defs>
  <style type="text/css">
*{stroke-linecap:butt;stroke-linejoin:round;}
  </style>
 </defs>
 <g id="figure_1">
  <g id="patch_1">
   <path d="
M0 432
L864 432
L864 0
L0 0
z
" style="fill:#ffffff;"/>
  </g>
  <g id="axes_1">
   <g id="patch_2">
    <path d="
M108 378
L777.6 378
L777.6 43.2
L108 43.2
z
" style="fill:#ffffff;"/>
   </g>
   <g id="matplotlib.axis_1">
    <g id="xtick_1">
     <g id="line2d_1">
      <defs>
       <path d="
M0 0
L0 6" id="m21bce50ef9" style="stroke:#262626;stroke-width:0.8;"/>
      </defs>
      <g>
       <use style="fill:#262626;stroke:#262626;stroke-width:0.8;" x="108.0" xlink:href="#m21bce50ef9" y="388.0"/>
      </g>
     </g>
     <g id="text_1">
      <!-- 0 -->
      <defs>
       <path d="
M27.4375 71.875
Q37.8438 71.875 43.7031 64.4531
Q50.6875 55.6719 50.6875 35.2969
Q50.6875 14.9844 43.6562 6.10938
Q37.8438 -1.21875 27.4375 -1.21875
Q17 -1.21875 10.5938 6.8125
Q4.20312 14.8438 4.20312 35.4531
Q4.20312 55.6719 11.2344 64.5469
Q17.0469 71.875 27.4375 71.875
M27.4375 60.5
Q24.9531 60.5 23 58.9062
Q21.0469 57.3281 19.9688 53.2188
Q18.5625 47.9062 18.5625 35.2969
Q18.5625 22.7031 19.8281 17.9844
Q21.0938 13.2812 23.0156 11.7188
Q24.9531 10.1562 27.4375 10.1562
Q29.9375 10.1562 31.8906 11.7344
Q33.8438 13.3281 34.9062 17.4375
Q36.3281 22.7031 36.3281 35.2969
Q36.3281 47.9062 35.0625 52.6094
Q33.7969 57.3281 31.8594 58.9062
Q29.9375 60.5 27.4375 60.5" id="Arial-BoldMT-30"/>
      </defs>
      <g style="fill:#262626;" transform="translate(104.28125 411.0525)scale(0.16 -0.16)">
       <use xlink:href="#Arial-BoldMT-30"/>
      </g>
     </g>
    </g>
    <g id="xtick_2">
     <g id="line2d_2">
      <g>
       <use style="fill:#262626;stroke:#262626;stroke-width:0.8;" x="275.4" xlink:href="#m21bce50ef9" y="388.0"/>
      </g>
     </g>
     <g id="text_2">
      <!-- 50 -->
      <defs>
       <path d="
M4.4375 18.4062
L18.1094 19.8281
Q18.7031 15.1875 21.5781 12.4688
Q24.4688 9.76562 28.2188 9.76562
Q32.5156 9.76562 35.5 13.25
Q38.4844 16.75 38.4844 23.7812
Q38.4844 30.375 35.5156 33.6719
Q32.5625 36.9688 27.8281 36.9688
Q21.9219 36.9688 17.2344 31.7344
L6.10938 33.3438
L13.1406 70.6094
L49.4219 70.6094
L49.4219 57.7656
L23.5312 57.7656
L21.3906 45.6094
Q25.9844 47.9062 30.7656 47.9062
Q39.8906 47.9062 46.2344 41.2656
Q52.5938 34.625 52.5938 24.0312
Q52.5938 15.1875 47.4688 8.25
Q40.4844 -1.21875 28.0781 -1.21875
Q18.1719 -1.21875 11.9219 4.09375
Q5.67188 9.42188 4.4375 18.4062" id="Arial-BoldMT-35"/>
      </defs>
      <g style="fill:#262626;" transform="translate(267.25125 411.0525)scale(0.16 -0.16)">
       <use xlink:href="#Arial-BoldMT-35"/>
       <use x="55.615234375" xlink:href="#Arial-BoldMT-30"/>
      </g>
     </g>
    </g>
    <g id="xtick_3">
     <g id="line2d_3">
      <g>
       <use style="fill:#262626;stroke:#262626;stroke-width:0.8;" x="442.8" xlink:href="#m21bce50ef9" y="388.0"/>
      </g>
     </g>
     <g id="text_3">
      <!-- 100 -->
      <defs>
       <path d="
M39.3594 0
L25.6406 0
L25.6406 51.7031
Q18.1094 44.6719 7.90625 41.3125
L7.90625 53.7656
Q13.2812 55.5156 19.5781 60.4219
Q25.875 65.3281 28.2188 71.875
L39.3594 71.875
z
" id="Arial-BoldMT-31"/>
      </defs>
      <g style="fill:#262626;" transform="translate(430.48 411.0525)scale(0.16 -0.16)">
       <use xlink:href="#Arial-BoldMT-31"/>
       <use x="55.615234375" xlink:href="#Arial-BoldMT-30"/>
       <use x="111.23046875" xlink:href="#Arial-BoldMT-30"/>
      </g>
     </g>
    </g>
    <g id="xtick_4">
     <g id="line2d_4">
      <g>
       <use style="fill:#262626;stroke:#262626;stroke-width:0.8;" x="610.2" xlink:href="#m21bce50ef9" y="388.0"/>
      </g>
     </g>
     <g id="text_4">
      <!-- 150 -->
      <g style="fill:#262626;" transform="translate(597.88 411.0525)scale(0.16 -0.16)">
       <use xlink:href="#Arial-BoldMT-31"/>
       <use x="55.615234375" xlink:href="#Arial-BoldMT-35"/>
       <use x="111.23046875" xlink:href="#Arial-BoldMT-30"/>
      </g>
     </g>
    </g>
    <g id="xtick_5">
     <g id="line2d_5">
      <g>
       <use style="fill:#262626;stroke:#262626;stroke-width:0.8;" x="777.6" xlink:href="#m21bce50ef9" y="388.0"/>
      </g>
     </g>
     <g id="text_5">
      <!-- 200 -->
      <defs>
       <path d="
M50.5938 12.75
L50.5938 0
L2.48438 0
Q3.26562 7.23438 7.17188 13.7031
Q11.0781 20.1719 22.6094 30.8594
Q31.8906 39.5 33.9844 42.5781
Q36.8125 46.8281 36.8125 50.9844
Q36.8125 55.5625 34.3438 58.0312
Q31.8906 60.5 27.5469 60.5
Q23.25 60.5 20.7031 57.9062
Q18.1719 55.3281 17.7812 49.3125
L4.10938 50.6875
Q5.32812 62.0156 11.7656 66.9375
Q18.2188 71.875 27.875 71.875
Q38.4844 71.875 44.5312 66.1562
Q50.5938 60.4531 50.5938 51.9531
Q50.5938 47.125 48.8594 42.75
Q47.125 38.375 43.3594 33.5938
Q40.875 30.4219 34.375 24.4531
Q27.875 18.5 26.1406 16.5469
Q24.4219 14.5938 23.3438 12.75
z
" id="Arial-BoldMT-32"/>
      </defs>
      <g style="fill:#262626;" transform="translate(764.84625 411.0525)scale(0.16 -0.16)">
       <use xlink:href="#Arial-BoldMT-32"/>
       <use x="55.615234375" xlink:href="#Arial-BoldMT-30"/>
       <use x="111.23046875" xlink:href="#Arial-BoldMT-30"/>
      </g>
     </g>
    </g>
    <g id="text_6">
     <!-- Epochs -->
     <defs>
      <path d="
M40.4375 19
L49.0781 17.875
Q47.6562 8.9375 41.8125 3.875
Q35.9844 -1.17188 27.4844 -1.17188
Q16.8438 -1.17188 10.375 5.78125
Q3.90625 12.75 3.90625 25.7344
Q3.90625 34.125 6.6875 40.4219
Q9.46875 46.7344 15.1562 49.875
Q20.8438 53.0312 27.5469 53.0312
Q35.9844 53.0312 41.3594 48.75
Q46.7344 44.4844 48.25 36.625
L39.7031 35.2969
Q38.4844 40.5312 35.375 43.1562
Q32.2812 45.7969 27.875 45.7969
Q21.2344 45.7969 17.0781 41.0312
Q12.9375 36.2812 12.9375 25.9844
Q12.9375 15.5312 16.9375 10.7969
Q20.9531 6.0625 27.3906 6.0625
Q32.5625 6.0625 36.0312 9.23438
Q39.5 12.4062 40.4375 19" id="ArialMT-63"/>
      <path d="
M7.90625 0
L7.90625 71.5781
L59.6719 71.5781
L59.6719 63.1406
L17.3906 63.1406
L17.3906 41.2188
L56.9844 41.2188
L56.9844 32.8125
L17.3906 32.8125
L17.3906 8.45312
L61.3281 8.45312
L61.3281 0
z
" id="ArialMT-45"/>
      <path d="
M6.59375 0
L6.59375 71.5781
L15.375 71.5781
L15.375 45.9062
Q21.5312 53.0312 30.9062 53.0312
Q36.6719 53.0312 40.9219 50.75
Q45.1719 48.4844 47 44.4844
Q48.8281 40.4844 48.8281 32.8594
L48.8281 0
L40.0469 0
L40.0469 32.8594
Q40.0469 39.4531 37.1875 42.4531
Q34.3281 45.4531 29.1094 45.4531
Q25.2031 45.4531 21.75 43.4219
Q18.3125 41.4062 16.8438 37.9375
Q15.375 34.4688 15.375 28.375
L15.375 0
z
" id="ArialMT-68"/>
      <path d="
M6.59375 -19.875
L6.59375 51.8594
L14.5938 51.8594
L14.5938 45.125
Q17.4375 49.0781 21 51.0469
Q24.5625 53.0312 29.6406 53.0312
Q36.2812 53.0312 41.3594 49.6094
Q46.4375 46.1875 49.0156 39.9531
Q51.6094 33.7344 51.6094 26.3125
Q51.6094 18.3594 48.75 11.9844
Q45.9062 5.60938 40.4531 2.21875
Q35.0156 -1.17188 29 -1.17188
Q24.6094 -1.17188 21.1094 0.6875
Q17.625 2.54688 15.375 5.375
L15.375 -19.875
z

M14.5469 25.6406
Q14.5469 15.625 18.5938 10.8438
Q22.6562 6.0625 28.4219 6.0625
Q34.2812 6.0625 38.4531 11.0156
Q42.625 15.9688 42.625 26.375
Q42.625 36.2812 38.5469 41.2031
Q34.4688 46.1406 28.8125 46.1406
Q23.1875 46.1406 18.8594 40.8906
Q14.5469 35.6406 14.5469 25.6406" id="ArialMT-70"/>
      <path d="
M3.07812 15.4844
L11.7656 16.8438
Q12.5 11.625 15.8438 8.84375
Q19.1875 6.0625 25.2031 6.0625
Q31.25 6.0625 34.1719 8.51562
Q37.1094 10.9844 37.1094 14.3125
Q37.1094 17.2812 34.5156 19
Q32.7188 20.1719 25.5312 21.9688
Q15.875 24.4219 12.1406 26.2031
Q8.40625 27.9844 6.46875 31.125
Q4.54688 34.2812 4.54688 38.0938
Q4.54688 41.5469 6.125 44.5
Q7.71875 47.4688 10.4531 49.4219
Q12.5 50.9219 16.0312 51.9688
Q19.5781 53.0312 23.6406 53.0312
Q29.7344 53.0312 34.3438 51.2656
Q38.9688 49.5156 41.1562 46.5
Q43.3594 43.5 44.1875 38.4844
L35.5938 37.3125
Q35.0156 41.3125 32.2031 43.5469
Q29.3906 45.7969 24.2656 45.7969
Q18.2188 45.7969 15.625 43.7969
Q13.0312 41.7969 13.0312 39.1094
Q13.0312 37.4062 14.1094 36.0312
Q15.1875 34.625 17.4844 33.6875
Q18.7969 33.2031 25.25 31.4531
Q34.5781 28.9531 38.25 27.3594
Q41.9375 25.7812 44.0312 22.75
Q46.1406 19.7344 46.1406 15.2344
Q46.1406 10.8438 43.5781 6.95312
Q41.0156 3.07812 36.1719 0.953125
Q31.3438 -1.17188 25.25 -1.17188
Q15.1406 -1.17188 9.84375 3.03125
Q4.54688 7.23438 3.07812 15.4844" id="ArialMT-73"/>
      <path d="
M3.32812 25.9219
Q3.32812 40.3281 11.3281 47.2656
Q18.0156 53.0312 27.6406 53.0312
Q38.3281 53.0312 45.1094 46.0156
Q51.9062 39.0156 51.9062 26.6562
Q51.9062 16.6562 48.9062 10.9062
Q45.9062 5.17188 40.1562 2
Q34.4219 -1.17188 27.6406 -1.17188
Q16.75 -1.17188 10.0312 5.8125
Q3.32812 12.7969 3.32812 25.9219
M12.3594 25.9219
Q12.3594 15.9688 16.7031 11.0156
Q21.0469 6.0625 27.6406 6.0625
Q34.1875 6.0625 38.5312 11.0312
Q42.875 16.0156 42.875 26.2188
Q42.875 35.8438 38.5 40.7969
Q34.125 45.75 27.6406 45.75
Q21.0469 45.75 16.7031 40.8125
Q12.3594 35.8906 12.3594 25.9219" id="ArialMT-6f"/>
     </defs>
     <g style="fill:#262626;" transform="translate(414.484625 431.80775)scale(0.176 -0.176)">
      <use xlink:href="#ArialMT-45"/>
      <use x="66.69921875" xlink:href="#ArialMT-70"/>
      <use x="122.314453125" xlink:href="#ArialMT-6f"/>
      <use x="177.9296875" xlink:href="#ArialMT-63"/>
      <use x="227.9296875" xlink:href="#ArialMT-68"/>
      <use x="283.544921875" xlink:href="#ArialMT-73"/>
     </g>
    </g>
   </g>
   <g id="matplotlib.axis_2">
    <g id="ytick_1">
     <g id="line2d_6">
      <defs>
       <path d="
M0 0
L-6 0" id="mb7b35f69c6" style="stroke:#262626;stroke-width:0.8;"/>
      </defs>
      <g>
       <use style="fill:#262626;stroke:#262626;stroke-width:0.8;" x="98.0" xlink:href="#mb7b35f69c6" y="378.0"/>
      </g>
     </g>
     <g id="text_7">
      <!-- 0.0 -->
      <defs>
       <path d="
M7.17188 0
L7.17188 13.7188
L20.9062 13.7188
L20.9062 0
z
" id="Arial-BoldMT-2e"/>
      </defs>
      <g style="fill:#262626;" transform="translate(65.62 382.1475)scale(0.16 -0.16)">
       <use xlink:href="#Arial-BoldMT-30"/>
       <use x="55.615234375" xlink:href="#Arial-BoldMT-2e"/>
       <use x="83.3984375" xlink:href="#Arial-BoldMT-30"/>
      </g>
     </g>
    </g>
    <g id="ytick_2">
     <g id="line2d_7">
      <g>
       <use style="fill:#262626;stroke:#262626;stroke-width:0.8;" x="98.0" xlink:href="#mb7b35f69c6" y="311.04"/>
      </g>
     </g>
     <g id="text_8">
      <!-- 0.2 -->
      <g style="fill:#262626;" transform="translate(65.635 315.1875)scale(0.16 -0.16)">
       <use xlink:href="#Arial-BoldMT-30"/>
       <use x="55.615234375" xlink:href="#Arial-BoldMT-2e"/>
       <use x="83.3984375" xlink:href="#Arial-BoldMT-32"/>
      </g>
     </g>
    </g>
    <g id="ytick_3">
     <g id="line2d_8">
      <g>
       <use style="fill:#262626;stroke:#262626;stroke-width:0.8;" x="98.0" xlink:href="#mb7b35f69c6" y="244.08"/>
      </g>
     </g>
     <g id="text_9">
      <!-- 0.4 -->
      <defs>
       <path d="
M31.1562 0
L31.1562 14.4062
L1.85938 14.4062
L1.85938 26.4219
L32.9062 71.875
L44.4375 71.875
L44.4375 26.4688
L53.3281 26.4688
L53.3281 14.4062
L44.4375 14.4062
L44.4375 0
z

M31.1562 26.4688
L31.1562 50.9219
L14.7031 26.4688
z
" id="Arial-BoldMT-34"/>
      </defs>
      <g style="fill:#262626;" transform="translate(65.1975 248.2275)scale(0.16 -0.16)">
       <use xlink:href="#Arial-BoldMT-30"/>
       <use x="55.615234375" xlink:href="#Arial-BoldMT-2e"/>
       <use x="83.3984375" xlink:href="#Arial-BoldMT-34"/>
      </g>
     </g>
    </g>
    <g id="ytick_4">
     <g id="line2d_9">
      <g>
       <use style="fill:#262626;stroke:#262626;stroke-width:0.8;" x="98.0" xlink:href="#mb7b35f69c6" y="177.12"/>
      </g>
     </g>
     <g id="text_10">
      <!-- 0.6 -->
      <defs>
       <path d="
M50.7344 54.0469
L37.4531 52.5938
Q36.9688 56.6875 34.9062 58.6406
Q32.8594 60.5938 29.5938 60.5938
Q25.25 60.5938 22.2344 56.6875
Q19.2344 52.7812 18.4531 40.4375
Q23.5781 46.4844 31.2031 46.4844
Q39.7969 46.4844 45.9219 39.9375
Q52.0469 33.4062 52.0469 23.0469
Q52.0469 12.0625 45.5938 5.42188
Q39.1562 -1.21875 29.0469 -1.21875
Q18.2188 -1.21875 11.2344 7.20312
Q4.25 15.625 4.25 34.8125
Q4.25 54.5 11.5156 63.1875
Q18.7969 71.875 30.4219 71.875
Q38.5781 71.875 43.9219 67.3125
Q49.2656 62.75 50.7344 54.0469
M19.625 24.125
Q19.625 17.4375 22.7031 13.7969
Q25.7812 10.1562 29.7344 10.1562
Q33.5469 10.1562 36.0781 13.125
Q38.625 16.1094 38.625 22.9062
Q38.625 29.8906 35.8906 33.125
Q33.1562 36.375 29.0469 36.375
Q25.0938 36.375 22.3594 33.2656
Q19.625 30.1719 19.625 24.125" id="Arial-BoldMT-36"/>
      </defs>
      <g style="fill:#262626;" transform="translate(65.4025 181.2675)scale(0.16 -0.16)">
       <use xlink:href="#Arial-BoldMT-30"/>
       <use x="55.615234375" xlink:href="#Arial-BoldMT-2e"/>
       <use x="83.3984375" xlink:href="#Arial-BoldMT-36"/>
      </g>
     </g>
    </g>
    <g id="ytick_5">
     <g id="line2d_10">
      <g>
       <use style="fill:#262626;stroke:#262626;stroke-width:0.8;" x="98.0" xlink:href="#mb7b35f69c6" y="110.16"/>
      </g>
     </g>
     <g id="text_11">
      <!-- 0.8 -->
      <defs>
       <path d="
M16.0156 38.625
Q10.6875 40.875 8.26562 44.7969
Q5.85938 48.7344 5.85938 53.4219
Q5.85938 61.4219 11.4531 66.6406
Q17.0469 71.875 27.3438 71.875
Q37.5469 71.875 43.1875 66.6406
Q48.8281 61.4219 48.8281 53.4219
Q48.8281 48.4375 46.2344 44.5469
Q43.6562 40.6719 38.9688 38.625
Q44.9219 36.2344 48.0156 31.6406
Q51.125 27.0469 51.125 21.0469
Q51.125 11.1406 44.7969 4.9375
Q38.4844 -1.26562 27.9844 -1.26562
Q18.2188 -1.26562 11.7188 3.85938
Q4.04688 9.90625 4.04688 20.4531
Q4.04688 26.2656 6.92188 31.125
Q9.8125 35.9844 16.0156 38.625
M18.8438 52.4375
Q18.8438 48.3438 21.1562 46.0469
Q23.4844 43.75 27.3438 43.75
Q31.25 43.75 33.5938 46.0625
Q35.9375 48.3906 35.9375 52.4844
Q35.9375 56.3438 33.6094 58.6562
Q31.2969 60.9844 27.4844 60.9844
Q23.5312 60.9844 21.1875 58.6406
Q18.8438 56.2969 18.8438 52.4375
M17.5781 21.7812
Q17.5781 16.1094 20.4844 12.9375
Q23.3906 9.76562 27.7344 9.76562
Q31.9844 9.76562 34.7656 12.8125
Q37.5469 15.875 37.5469 21.625
Q37.5469 26.6562 34.7188 29.7031
Q31.8906 32.7656 27.5469 32.7656
Q22.5156 32.7656 20.0469 29.2969
Q17.5781 25.8281 17.5781 21.7812" id="Arial-BoldMT-38"/>
      </defs>
      <g style="fill:#262626;" transform="translate(65.55 114.3075)scale(0.16 -0.16)">
       <use xlink:href="#Arial-BoldMT-30"/>
       <use x="55.615234375" xlink:href="#Arial-BoldMT-2e"/>
       <use x="83.3984375" xlink:href="#Arial-BoldMT-38"/>
      </g>
     </g>
    </g>
    <g id="ytick_6">
     <g id="line2d_11">
      <g>
       <use style="fill:#262626;stroke:#262626;stroke-width:0.8;" x="98.0" xlink:href="#mb7b35f69c6" y="43.2"/>
      </g>
     </g>
     <g id="text_12">
      <!-- 1.0 -->
      <g style="fill:#262626;" transform="translate(66.2125 47.3475)scale(0.16 -0.16)">
       <use xlink:href="#Arial-BoldMT-31"/>
       <use x="55.615234375" xlink:href="#Arial-BoldMT-2e"/>
       <use x="83.3984375" xlink:href="#Arial-BoldMT-30"/>
      </g>
     </g>
    </g>
    <g id="text_13">
     <!-- Metric -->
     <defs>
      <path d="
M25.7812 7.85938
L27.0469 0.09375
Q23.3438 -0.6875 20.4062 -0.6875
Q15.625 -0.6875 12.9844 0.828125
Q10.3594 2.34375 9.28125 4.8125
Q8.20312 7.28125 8.20312 15.1875
L8.20312 45.0156
L1.76562 45.0156
L1.76562 51.8594
L8.20312 51.8594
L8.20312 64.7031
L16.9375 69.9688
L16.9375 51.8594
L25.7812 51.8594
L25.7812 45.0156
L16.9375 45.0156
L16.9375 14.7031
Q16.9375 10.9375 17.4062 9.85938
Q17.875 8.79688 18.9219 8.15625
Q19.9688 7.51562 21.9219 7.51562
Q23.3906 7.51562 25.7812 7.85938" id="ArialMT-74"/>
      <path d="
M6.64062 61.4688
L6.64062 71.5781
L15.4375 71.5781
L15.4375 61.4688
z

M6.64062 0
L6.64062 51.8594
L15.4375 51.8594
L15.4375 0
z
" id="ArialMT-69"/>
      <path d="
M7.42188 0
L7.42188 71.5781
L21.6875 71.5781
L38.625 20.9062
Q40.9688 13.8125 42.0469 10.2969
Q43.2656 14.2031 45.8438 21.7812
L62.9844 71.5781
L75.7344 71.5781
L75.7344 0
L66.6094 0
L66.6094 59.9062
L45.7969 0
L37.25 0
L16.5469 60.9375
L16.5469 0
z
" id="ArialMT-4d"/>
      <path d="
M42.0938 16.7031
L51.1719 15.5781
Q49.0312 7.625 43.2188 3.21875
Q37.4062 -1.17188 28.375 -1.17188
Q17 -1.17188 10.3281 5.82812
Q3.65625 12.8438 3.65625 25.4844
Q3.65625 38.5781 10.3906 45.7969
Q17.1406 53.0312 27.875 53.0312
Q38.2812 53.0312 44.875 45.9531
Q51.4688 38.875 51.4688 26.0312
Q51.4688 25.25 51.4219 23.6875
L12.75 23.6875
Q13.2344 15.1406 17.5781 10.5938
Q21.9219 6.0625 28.4219 6.0625
Q33.25 6.0625 36.6719 8.59375
Q40.0938 11.1406 42.0938 16.7031
M13.2344 30.9062
L42.1875 30.9062
Q41.6094 37.4531 38.875 40.7188
Q34.6719 45.7969 27.9844 45.7969
Q21.9219 45.7969 17.7969 41.75
Q13.6719 37.7031 13.2344 30.9062" id="ArialMT-65"/>
      <path d="
M6.5 0
L6.5 51.8594
L14.4062 51.8594
L14.4062 44
Q17.4375 49.5156 20 51.2656
Q22.5625 53.0312 25.6406 53.0312
Q30.0781 53.0312 34.6719 50.2031
L31.6406 42.0469
Q28.4219 43.9531 25.2031 43.9531
Q22.3125 43.9531 20.0156 42.2188
Q17.7188 40.4844 16.75 37.4062
Q15.2812 32.7188 15.2812 27.1562
L15.2812 0
z
" id="ArialMT-72"/>
     </defs>
     <g style="fill:#262626;" transform="translate(56.6995 233.819625)rotate(-90.0)scale(0.176 -0.176)">
      <use xlink:href="#ArialMT-4d"/>
      <use x="83.30078125" xlink:href="#ArialMT-65"/>
      <use x="138.916015625" xlink:href="#ArialMT-74"/>
      <use x="166.69921875" xlink:href="#ArialMT-72"/>
      <use x="200.0" xlink:href="#ArialMT-69"/>
      <use x="222.216796875" xlink:href="#ArialMT-63"/>
     </g>
    </g>
   </g>
   <g id="line2d_12">
    <path clip-path="url(#pe8a5247557)" d="
M108 345.186
L111.348 345.639
L114.696 344.379
L118.044 344.126
L121.392 343.256
L124.74 343.053
L128.088 341.662
L131.436 341.704
L138.132 340.57
L141.48 339.343
L151.524 337.489
L154.872 337.383
L158.22 335.844
L161.568 336.029
L164.916 335.257
L171.612 334.035
L174.96 333.279
L178.308 332.824
L181.656 331.981
L185.004 330.946
L191.7 329.8
L195.048 328.901
L198.396 327.357
L201.744 326.13
L205.092 325.175
L208.44 323.873
L211.788 322.309
L215.136 321.94
L218.484 320.616
L221.832 318.864
L225.18 317.874
L228.528 315.988
L231.876 314.682
L235.224 312.931
L238.572 310.75
L241.92 309.716
L245.268 308.192
L251.964 304.276
L255.312 301.915
L262.008 298.106
L265.356 295.741
L268.704 293.654
L272.052 292.205
L275.4 289.668
L278.748 288.237
L282.096 286.256
L285.444 285.16
L288.792 284.564
L292.14 282.863
L295.488 282.01
L298.836 281.361
L302.184 278.998
L305.532 277.849
L308.88 276.452
L312.228 276.074
L315.576 276.471
L318.924 275.669
L322.272 275.28
L325.62 274.772
L328.968 274.045
L332.316 272.651
L335.664 272.652
L339.012 273.138
L342.36 272.385
L345.708 273.162
L349.056 271.226
L352.404 271.062
L355.752 271.084
L359.1 269.864
L362.448 268.23
L365.796 266.884
L369.144 265.045
L375.84 260.299
L379.188 257.554
L382.536 255.083
L385.884 251.692
L389.232 248.962
L392.58 245.295
L395.928 243.53
L399.276 243.689
L402.624 241.547
L405.972 241.02
L409.32 240.645
L412.668 241.065
L416.016 238.477
L419.364 238.707
L422.712 238.056
L426.06 236.205
L429.408 235.843
L432.756 234.822
L436.104 234.433
L439.452 233.795
L442.8 232.446
L446.148 231.507
L449.496 233.323
L452.844 234.527
L456.192 234.852
L459.54 237.273
L462.888 238.717
L466.236 237.912
L469.584 240.364
L472.932 238.503
L476.28 237.298
L479.628 235.52
L482.976 233.186
L486.324 232.8
L489.672 232.635
L493.02 231.93
L496.368 230.379
L503.064 228.317
L506.412 227.481
L509.76 226.433
L513.108 225.671
L516.456 224.711
L523.152 224.347
L533.196 222.513
L536.544 221.54
L539.892 221.693
L543.24 221.485
L546.588 221.11
L549.936 220.943
L553.284 220.35
L556.632 221.429
L559.98 221.127
L566.676 222.205
L570.024 221.78
L573.372 222.426
L586.764 219.515
L590.112 218.679
L593.46 217.056
L596.808 217.555
L600.156 216.506
L603.504 215.332
L606.852 214.721
L610.2 212.872
L613.548 210.673
L620.244 206.866
L623.592 203.771
L626.94 201.871
L630.288 199.113
L633.636 194.807
L636.984 191.528
L640.332 187.901
L643.68 184.751
L647.028 182.463
L650.376 179.239
L653.724 180.317
L657.072 177.96
L660.42 174.616
L663.768 170.187
L667.116 168.014
L670.464 163.173
L673.812 159.953
L677.16 160.827
L680.508 159.433
L683.856 158.798
L687.204 157.311
L690.552 157.163
L693.9 154.602
L697.248 153.723
L700.596 156.082
L703.944 151.066
L707.292 151.59
L710.64 148.493
L713.988 145.226
L717.336 142.691
L720.684 142.992
L724.032 140.001
L727.38 135.727
L730.728 132.927
L734.076 138.571
L737.424 138.726
L740.772 134.051
L744.12 131.31
L747.468 130.34
L750.816 124.838
L754.164 123.08
L757.512 122.204
L760.86 123.659
L764.208 119.626
L767.556 117.756
L770.904 118.313
L774.252 116.286
L774.252 116.286" style="fill:none;opacity:0.75;stroke:#003fff;stroke-linecap:round;stroke-width:4;"/>
   </g>
   <g id="line2d_13">
    <path clip-path="url(#pe8a5247557)" d="
M108 282.482
L114.696 280.402
L118.044 279.879
L121.392 281.168
L124.74 282.194
L128.088 283.921
L131.436 285.96
L134.784 287.429
L138.132 290.204
L141.48 291.478
L144.828 292.179
L148.176 294.21
L151.524 295.285
L154.872 295.566
L158.22 297.128
L161.568 297.436
L164.916 299.193
L168.264 299.86
L171.612 300.788
L174.96 302.335
L178.308 303.166
L181.656 305.316
L188.352 308.121
L191.7 308.821
L195.048 310.371
L198.396 312.514
L201.744 314.49
L205.092 315.689
L211.788 318.474
L215.136 320.321
L218.484 320.992
L221.832 322.564
L225.18 324.273
L228.528 326.113
L231.876 327.385
L235.224 329.804
L238.572 330.99
L241.92 332.349
L245.268 333.909
L248.616 336.151
L251.964 336.872
L255.312 338.336
L258.66 341.455
L262.008 342.504
L265.356 344.835
L268.704 345.442
L272.052 346.363
L275.4 348.155
L278.748 349.514
L288.792 351.539
L292.14 352.296
L295.488 352.822
L302.184 354.846
L305.532 356.117
L308.88 356.725
L312.228 357.522
L315.576 357.478
L318.924 358.26
L322.272 358.216
L328.968 358.942
L332.316 359.794
L335.664 359.025
L339.012 359.071
L342.36 359.36
L345.708 359.864
L349.056 359.664
L352.404 359.618
L355.752 359.699
L359.1 359.204
L362.448 358.352
L365.796 359.751
L369.144 359.169
L372.492 360.007
L375.84 360.479
L379.188 361.217
L382.536 362.144
L385.884 360.965
L389.232 362.018
L392.58 363.719
L395.928 364.05
L399.276 364.937
L402.624 365.353
L412.668 366.325
L416.016 367.698
L419.364 367.127
L422.712 367.31
L426.06 368.28
L429.408 368.501
L432.756 368.882
L436.104 369.052
L439.452 369.982
L442.8 369.768
L446.148 370.803
L449.496 370.183
L452.844 370.051
L456.192 371.038
L459.54 371.332
L466.236 371.051
L472.932 372.037
L476.28 372.188
L479.628 372.745
L482.976 372.587
L486.324 372.848
L489.672 372.996
L493.02 372.955
L496.368 373.441
L506.412 373.583
L513.108 374.033
L516.456 374.192
L519.804 374.13
L533.196 374.7
L536.544 374.778
L539.892 374.514
L546.588 374.964
L549.936 374.821
L553.284 375.1
L559.98 375.312
L563.328 375.074
L570.024 375.35
L576.72 375.27
L580.068 375.417
L583.416 375.294
L586.764 375.431
L590.112 375.253
L593.46 375.327
L600.156 375.01
L603.504 374.868
L606.852 375.486
L610.2 375.091
L613.548 375.194
L620.244 374.635
L623.592 374.669
L626.94 374.334
L630.288 374.231
L633.636 374.506
L640.332 374.568
L643.68 374.17
L647.028 374.076
L653.724 374.189
L657.072 373.7
L660.42 373.807
L663.768 372.86
L667.116 373.77
L670.464 373.367
L673.812 373.255
L677.16 373.694
L680.508 373.154
L683.856 373.717
L687.204 373.604
L690.552 373.28
L700.596 373.3
L703.944 373.857
L710.64 373.874
L713.988 374.322
L717.336 373.808
L720.684 374.395
L724.032 373.691
L727.38 374.675
L730.728 373.698
L734.076 374.012
L737.424 374.055
L740.772 374.287
L747.468 373.997
L750.816 374.509
L754.164 374.295
L757.512 374.506
L760.86 373.829
L764.208 374.851
L767.556 375.234
L770.904 374.45
L774.252 374.654
L774.252 374.654" style="fill:none;opacity:0.75;stroke:#03ed3a;stroke-linecap:round;stroke-width:4;"/>
   </g>
   <g id="line2d_14">
    <path clip-path="url(#pe8a5247557)" d="
M108 359.472
L111.348 359.565
L114.696 359.267
L121.392 358.399
L124.74 357.871
L128.088 356.95
L131.436 357.01
L138.132 355.959
L141.48 354.983
L144.828 354.429
L148.176 354.147
L151.524 353.726
L154.872 353.513
L158.22 352.219
L161.568 352.46
L164.916 351.843
L168.264 351.033
L171.612 350.519
L174.96 349.648
L178.308 349.395
L181.656 348.098
L185.004 347.07
L191.7 345.613
L195.048 344.521
L198.396 342.485
L201.744 341.303
L205.092 339.999
L211.788 336.85
L215.136 336.033
L218.484 334.385
L221.832 332.289
L225.18 331.121
L228.528 329.055
L231.876 327.45
L238.572 323.201
L241.92 321.938
L245.268 320.088
L248.616 318.076
L251.964 315.722
L255.312 312.92
L258.66 311.015
L262.008 308.663
L265.356 305.589
L268.704 303.595
L272.052 301.871
L275.4 299.185
L278.748 297.721
L282.096 296.011
L285.444 294.478
L288.792 294.091
L292.14 292.487
L295.488 291.246
L298.836 289.795
L302.184 286.957
L305.532 285.493
L308.88 283.544
L312.228 282.663
L315.576 282.857
L318.924 281.816
L322.272 281.257
L325.62 280.568
L328.968 280.023
L332.316 278.608
L335.664 278.939
L339.012 278.99
L342.36 278.055
L345.708 279.17
L349.056 276.725
L352.404 277.053
L355.752 276.565
L359.1 275.898
L362.448 274.235
L365.796 272.312
L369.144 270.95
L372.492 268.697
L379.188 262.674
L389.232 253.813
L392.58 250.191
L395.928 248.314
L399.276 248.38
L402.624 245.405
L405.972 245.427
L409.32 244.649
L412.668 244.9
L416.016 242.566
L419.364 242.207
L422.712 241.048
L426.06 239.418
L429.408 238.719
L432.756 237.878
L436.104 236.856
L439.452 236.49
L442.8 235.138
L446.148 234.051
L449.496 236.156
L452.844 237.02
L456.192 237.461
L459.54 240.245
L462.888 241.497
L466.236 240.285
L469.584 242.814
L472.932 240.8
L476.28 239.639
L479.628 237.666
L482.976 235.304
L486.324 234.781
L489.672 234.653
L493.02 233.844
L496.368 232.297
L503.064 229.891
L506.412 229.038
L509.76 227.878
L516.456 226.144
L523.152 225.619
L529.848 224.512
L536.544 222.763
L539.892 222.855
L543.24 222.619
L546.588 222.18
L549.936 222.113
L553.284 221.399
L556.632 222.387
L559.98 222.184
L563.328 222.46
L566.676 223.063
L570.024 222.696
L573.372 223.364
L580.068 221.723
L590.112 219.581
L593.46 217.911
L596.808 218.561
L603.504 216.303
L606.852 215.598
L610.2 213.742
L613.548 211.661
L620.244 207.966
L623.592 204.839
L626.94 203.098
L630.288 200.22
L633.636 196.145
L636.984 192.889
L640.332 189.069
L643.68 186.145
L647.028 183.862
L650.376 180.752
L653.724 181.781
L657.072 179.405
L660.42 176.028
L663.768 171.679
L667.116 169.857
L670.464 165.296
L673.812 161.77
L677.16 162.805
L680.508 161.008
L683.856 160.727
L687.204 159.021
L690.552 159.083
L693.9 156.66
L697.248 156.058
L700.596 157.918
L703.944 152.844
L707.292 153.832
L710.64 150.317
L713.988 147.383
L717.336 144.609
L720.684 144.948
L724.032 141.728
L727.38 137.758
L730.728 134.657
L734.076 140.812
L737.424 140.659
L740.772 136.042
L744.12 133.175
L747.468 132.417
L750.816 126.421
L754.164 124.965
L757.512 124.03
L760.86 126.133
L764.208 121.158
L767.556 119.764
L770.904 120.217
L774.252 117.842
L774.252 117.842" style="fill:none;opacity:0.75;stroke:#e8000b;stroke-linecap:round;stroke-width:4;"/>
   </g>
   <g id="patch_3">
    <path d="
M108 388
L777.6 388" style="fill:none;stroke:#262626;stroke-linecap:square;stroke-linejoin:miter;stroke-width:1.25;"/>
   </g>
   <g id="patch_4">
    <path d="
M98 378
L98 43.2" style="fill:none;stroke:#262626;stroke-linecap:square;stroke-linejoin:miter;stroke-width:1.25;"/>
   </g>
   <g id="text_14">
    <!-- music80 dataset optimizing for tonality with $\tau$=0.2 -->
    <defs>
     <path d="
M6.39062 0
L6.39062 71.5781
L15.1875 71.5781
L15.1875 0
z
" id="ArialMT-6c"/>
     <path d="
M40.4375 6.39062
Q35.5469 2.25 31.0312 0.53125
Q26.5156 -1.17188 21.3438 -1.17188
Q12.7969 -1.17188 8.20312 3
Q3.60938 7.17188 3.60938 13.6719
Q3.60938 17.4844 5.34375 20.625
Q7.07812 23.7812 9.89062 25.6875
Q12.7031 27.5938 16.2188 28.5625
Q18.7969 29.25 24.0312 29.8906
Q34.6719 31.1562 39.7031 32.9062
Q39.75 34.7188 39.75 35.2031
Q39.75 40.5781 37.25 42.7812
Q33.8906 45.75 27.25 45.75
Q21.0469 45.75 18.0938 43.5781
Q15.1406 41.4062 13.7188 35.8906
L5.125 37.0625
Q6.29688 42.5781 8.98438 45.9688
Q11.6719 49.3594 16.75 51.1875
Q21.8281 53.0312 28.5156 53.0312
Q35.1562 53.0312 39.2969 51.4688
Q43.4531 49.9062 45.4062 47.5312
Q47.3594 45.1719 48.1406 41.5469
Q48.5781 39.3125 48.5781 33.4531
L48.5781 21.7344
Q48.5781 9.46875 49.1406 6.21875
Q49.7031 2.98438 51.375 0
L42.1875 0
Q40.8281 2.73438 40.4375 6.39062
M39.7031 26.0312
Q34.9062 24.0781 25.3438 22.7031
Q19.9219 21.9219 17.6719 20.9375
Q15.4375 19.9688 14.2031 18.0938
Q12.9844 16.2188 12.9844 13.9219
Q12.9844 10.4062 15.6406 8.0625
Q18.3125 5.71875 23.4375 5.71875
Q28.5156 5.71875 32.4688 7.9375
Q36.4219 10.1562 38.2812 14.0156
Q39.7031 17 39.7031 22.7969
z
" id="ArialMT-61"/>
     <path d="
M15.5781 1.51562
Q15.5781 2.20312 15.7188 2.59375
L26.2188 36.9219
L17.1875 36.9219
Q13.5312 36.9219 10.3438 34.625
Q7.17188 32.3281 5.07812 28.8125
Q4.89062 28.4219 4.5 28.4219
L3.32812 28.4219
Q2.39062 28.4219 2.39062 29.3906
Q2.39062 29.5938 2.59375 29.9844
Q5.85938 35.5469 9.59375 39.3281
Q13.3281 43.1094 18.0156 43.1094
L48.6875 43.1094
Q49.75 43.1094 50.4844 42.375
Q51.2188 41.6562 51.2188 40.5781
Q51.2188 39.1094 50.1719 38.0156
Q49.125 36.9219 47.6094 36.9219
L29.5 36.9219
L22.7969 2.39062
Q22.4062 0.78125 21.3281 -0.265625
Q20.2656 -1.3125 18.6094 -1.3125
Q17.3281 -1.3125 16.4531 -0.5
Q15.5781 0.296875 15.5781 1.51562" id="Cmmi10-bf"/>
     <path d="
M4.98438 -4.29688
L13.5312 -5.5625
Q14.0625 -9.51562 16.5 -11.3281
Q19.7812 -13.7656 25.4375 -13.7656
Q31.5469 -13.7656 34.8594 -11.3281
Q38.1875 -8.89062 39.3594 -4.5
Q40.0469 -1.8125 39.9844 6.78125
Q34.2344 0 25.6406 0
Q14.9375 0 9.07812 7.71875
Q3.21875 15.4375 3.21875 26.2188
Q3.21875 33.6406 5.90625 39.9062
Q8.59375 46.1875 13.6875 49.6094
Q18.7969 53.0312 25.6875 53.0312
Q34.8594 53.0312 40.8281 45.6094
L40.8281 51.8594
L48.9219 51.8594
L48.9219 7.03125
Q48.9219 -5.07812 46.4531 -10.125
Q44 -15.1875 38.6406 -18.1094
Q33.2969 -21.0469 25.4844 -21.0469
Q16.2188 -21.0469 10.5 -16.875
Q4.78125 -12.7031 4.98438 -4.29688
M12.25 26.8594
Q12.25 16.6562 16.2969 11.9688
Q20.3594 7.28125 26.4688 7.28125
Q32.5156 7.28125 36.6094 11.9375
Q40.7188 16.6094 40.7188 26.5625
Q40.7188 36.0781 36.5 40.9062
Q32.2812 45.75 26.3125 45.75
Q20.4531 45.75 16.3438 40.9844
Q12.25 36.2344 12.25 26.8594" id="ArialMT-67"/>
     <path d="
M8.6875 0
L8.6875 45.0156
L0.921875 45.0156
L0.921875 51.8594
L8.6875 51.8594
L8.6875 57.375
Q8.6875 62.5938 9.625 65.1406
Q10.8906 68.5625 14.0781 70.6719
Q17.2812 72.7969 23.0469 72.7969
Q26.7656 72.7969 31.25 71.9219
L29.9375 64.2656
Q27.2031 64.75 24.75 64.75
Q20.75 64.75 19.0938 63.0312
Q17.4375 61.3281 17.4375 56.6406
L17.4375 51.8594
L27.5469 51.8594
L27.5469 45.0156
L17.4375 45.0156
L17.4375 0
z
" id="ArialMT-66"/>
     <path d="
M40.2344 0
L40.2344 6.54688
Q35.2969 -1.17188 25.7344 -1.17188
Q19.5312 -1.17188 14.3281 2.25
Q9.125 5.67188 6.26562 11.7969
Q3.42188 17.9219 3.42188 25.875
Q3.42188 33.6406 6 39.9688
Q8.59375 46.2969 13.7656 49.6562
Q18.9531 53.0312 25.3438 53.0312
Q30.0312 53.0312 33.6875 51.0469
Q37.3594 49.0781 39.6562 45.9062
L39.6562 71.5781
L48.3906 71.5781
L48.3906 0
z

M12.4531 25.875
Q12.4531 15.9219 16.6406 10.9844
Q20.8438 6.0625 26.5625 6.0625
Q32.3281 6.0625 36.3438 10.7656
Q40.375 15.4844 40.375 25.1406
Q40.375 35.7969 36.2656 40.7656
Q32.1719 45.75 26.1719 45.75
Q20.3125 45.75 16.375 40.9688
Q12.4531 36.1875 12.4531 25.875" id="ArialMT-64"/>
     <path d="
M40.5781 0
L40.5781 7.625
Q34.5156 -1.17188 24.125 -1.17188
Q19.5312 -1.17188 15.5469 0.578125
Q11.5781 2.34375 9.64062 5
Q7.71875 7.67188 6.9375 11.5312
Q6.39062 14.1094 6.39062 19.7344
L6.39062 51.8594
L15.1875 51.8594
L15.1875 23.0938
Q15.1875 16.2188 15.7188 13.8125
Q16.5469 10.3594 19.2344 8.375
Q21.9219 6.39062 25.875 6.39062
Q29.8281 6.39062 33.2969 8.42188
Q36.7656 10.4531 38.2031 13.9375
Q39.6562 17.4375 39.6562 24.0781
L39.6562 51.8594
L48.4375 51.8594
L48.4375 0
z
" id="ArialMT-75"/>
     <path d="
M9.07812 0
L9.07812 10.0156
L19.0938 10.0156
L19.0938 0
z
" id="ArialMT-2e"/>
     <path d="
M16.1562 0
L0.296875 51.8594
L9.375 51.8594
L17.625 21.9219
L20.7031 10.7969
Q20.9062 11.625 23.3906 21.4844
L31.6406 51.8594
L40.6719 51.8594
L48.4375 21.7812
L51.0312 11.8594
L54 21.875
L62.8906 51.8594
L71.4375 51.8594
L55.2188 0
L46.0938 0
L37.8438 31.0625
L35.8438 39.8906
L25.3438 0
z
" id="ArialMT-77"/>
     <path d="
M52.8281 42.0938
L5.5625 42.0938
L5.5625 50.2969
L52.8281 50.2969
z

M52.8281 20.3594
L5.5625 20.3594
L5.5625 28.5625
L52.8281 28.5625
z
" id="ArialMT-3d"/>
     <path d="
M6.20312 -19.9688
L5.21875 -11.7188
Q8.10938 -12.5 10.25 -12.5
Q13.1875 -12.5 14.9375 -11.5156
Q16.7031 -10.5469 17.8281 -8.79688
Q18.6562 -7.46875 20.5156 -2.25
Q20.75 -1.51562 21.2969 -0.09375
L1.60938 51.8594
L11.0781 51.8594
L21.875 21.8281
Q23.9688 16.1094 25.6406 9.8125
Q27.1562 15.875 29.25 21.625
L40.3281 51.8594
L49.125 51.8594
L29.3906 -0.875
Q26.2188 -9.42188 24.4688 -12.6406
Q22.125 -17 19.0938 -19.0156
Q16.0625 -21.0469 11.8594 -21.0469
Q9.32812 -21.0469 6.20312 -19.9688" id="ArialMT-79"/>
     <path d="
M17.6719 38.8125
Q12.2031 40.8281 9.5625 44.5312
Q6.9375 48.25 6.9375 53.4219
Q6.9375 61.2344 12.5469 66.5469
Q18.1719 71.875 27.4844 71.875
Q36.8594 71.875 42.5781 66.4219
Q48.2969 60.9844 48.2969 53.1719
Q48.2969 48.1875 45.6719 44.5
Q43.0625 40.8281 37.75 38.8125
Q44.3438 36.6719 47.7812 31.875
Q51.2188 27.0938 51.2188 20.4531
Q51.2188 11.2812 44.7188 5.03125
Q38.2344 -1.21875 27.6406 -1.21875
Q17.0469 -1.21875 10.5469 5.04688
Q4.04688 11.3281 4.04688 20.7031
Q4.04688 27.6875 7.59375 32.3906
Q11.1406 37.1094 17.6719 38.8125
M15.9219 53.7188
Q15.9219 48.6406 19.1875 45.4062
Q22.4688 42.1875 27.6875 42.1875
Q32.7656 42.1875 36.0156 45.375
Q39.2656 48.5781 39.2656 53.2188
Q39.2656 58.0625 35.9062 61.3594
Q32.5625 64.6562 27.5938 64.6562
Q22.5625 64.6562 19.2344 61.4219
Q15.9219 58.2031 15.9219 53.7188
M13.0938 20.6562
Q13.0938 16.8906 14.875 13.375
Q16.6562 9.85938 20.1719 7.92188
Q23.6875 6 27.7344 6
Q34.0312 6 38.125 10.0469
Q42.2344 14.1094 42.2344 20.3594
Q42.2344 26.7031 38.0156 30.8594
Q33.7969 35.0156 27.4375 35.0156
Q21.2344 35.0156 17.1562 30.9062
Q13.0938 26.8125 13.0938 20.6562" id="ArialMT-38"/>
     <path d="
M6.59375 0
L6.59375 51.8594
L14.5 51.8594
L14.5 44.4844
Q20.2188 53.0312 31 53.0312
Q35.6875 53.0312 39.625 51.3438
Q43.5625 49.6562 45.5156 46.9219
Q47.4688 44.1875 48.25 40.4375
Q48.7344 37.9844 48.7344 31.8906
L48.7344 0
L39.9375 0
L39.9375 31.5469
Q39.9375 36.9219 38.9062 39.5781
Q37.8906 42.2344 35.2812 43.8125
Q32.6719 45.4062 29.1562 45.4062
Q23.5312 45.4062 19.4531 41.8438
Q15.375 38.2812 15.375 28.3281
L15.375 0
z
" id="ArialMT-6e"/>
     <path d="
M6.59375 0
L6.59375 51.8594
L14.4531 51.8594
L14.4531 44.5781
Q16.8906 48.3906 20.9375 50.7031
Q25 53.0312 30.1719 53.0312
Q35.9375 53.0312 39.625 50.6406
Q43.3125 48.25 44.8281 43.9531
Q50.9844 53.0312 60.8438 53.0312
Q68.5625 53.0312 72.7031 48.75
Q76.8594 44.4844 76.8594 35.5938
L76.8594 0
L68.1094 0
L68.1094 32.6719
Q68.1094 37.9375 67.25 40.25
Q66.4062 42.5781 64.1562 43.9844
Q61.9219 45.4062 58.8906 45.4062
Q53.4219 45.4062 49.7969 41.7656
Q46.1875 38.1406 46.1875 30.125
L46.1875 0
L37.4062 0
L37.4062 33.6875
Q37.4062 39.5469 35.25 42.4688
Q33.1094 45.4062 28.2188 45.4062
Q24.5156 45.4062 21.3594 43.4531
Q18.2188 41.5 16.7969 37.7344
Q15.375 33.9844 15.375 26.9062
L15.375 0
z
" id="ArialMT-6d"/>
     <path d="
M4.15625 35.2969
Q4.15625 48 6.76562 55.7344
Q9.375 63.4844 14.5156 67.6719
Q19.6719 71.875 27.4844 71.875
Q33.25 71.875 37.5938 69.5469
Q41.9375 67.2344 44.7656 62.8594
Q47.6094 58.5 49.2188 52.2188
Q50.8281 45.9531 50.8281 35.2969
Q50.8281 22.7031 48.2344 14.9688
Q45.6562 7.23438 40.5 3
Q35.3594 -1.21875 27.4844 -1.21875
Q17.1406 -1.21875 11.2344 6.20312
Q4.15625 15.1406 4.15625 35.2969
M13.1875 35.2969
Q13.1875 17.6719 17.3125 11.8281
Q21.4375 6 27.4844 6
Q33.5469 6 37.6719 11.8594
Q41.7969 17.7188 41.7969 35.2969
Q41.7969 52.9844 37.6719 58.7812
Q33.5469 64.5938 27.3906 64.5938
Q21.3438 64.5938 17.7188 59.4688
Q13.1875 52.9375 13.1875 35.2969" id="ArialMT-30"/>
     <path d="
M50.3438 8.45312
L50.3438 0
L3.03125 0
Q2.9375 3.17188 4.04688 6.10938
Q5.85938 10.9375 9.82812 15.625
Q13.8125 20.3125 21.3438 26.4688
Q33.0156 36.0312 37.1094 41.625
Q41.2188 47.2188 41.2188 52.2031
Q41.2188 57.4219 37.4688 61
Q33.7344 64.5938 27.7344 64.5938
Q21.3906 64.5938 17.5781 60.7812
Q13.7656 56.9844 13.7188 50.25
L4.6875 51.1719
Q5.60938 61.2812 11.6562 66.5781
Q17.7188 71.875 27.9375 71.875
Q38.2344 71.875 44.2344 66.1562
Q50.25 60.4531 50.25 52
Q50.25 47.7031 48.4844 43.5469
Q46.7344 39.4062 42.6562 34.8125
Q38.5781 30.2188 29.1094 22.2188
Q21.1875 15.5781 18.9375 13.2031
Q16.7031 10.8438 15.2344 8.45312
z
" id="ArialMT-32"/>
     <path d="
M1.95312 0
L1.95312 7.125
L34.9688 45.0156
Q29.3438 44.7344 25.0469 44.7344
L3.90625 44.7344
L3.90625 51.8594
L46.2969 51.8594
L46.2969 46.0469
L18.2188 13.1406
L12.7969 7.125
Q18.7031 7.5625 23.875 7.5625
L47.8594 7.5625
L47.8594 0
z
" id="ArialMT-7a"/>
     <path id="ArialMT-20"/>
    </defs>
    <g style="fill:#262626;" transform="translate(234.48 38.2)scale(0.192 -0.192)">
     <use transform="translate(0.0 0.203125)" xlink:href="#ArialMT-6d"/>
     <use transform="translate(83.30078125 0.203125)" xlink:href="#ArialMT-75"/>
     <use transform="translate(138.916015625 0.203125)" xlink:href="#ArialMT-73"/>
     <use transform="translate(188.916015625 0.203125)" xlink:href="#ArialMT-69"/>
     <use transform="translate(211.1328125 0.203125)" xlink:href="#ArialMT-63"/>
     <use transform="translate(261.1328125 0.203125)" xlink:href="#ArialMT-38"/>
     <use transform="translate(316.748046875 0.203125)" xlink:href="#ArialMT-30"/>
     <use transform="translate(372.36328125 0.203125)" xlink:href="#ArialMT-20"/>
     <use transform="translate(400.146484375 0.203125)" xlink:href="#ArialMT-64"/>
     <use transform="translate(455.76171875 0.203125)" xlink:href="#ArialMT-61"/>
     <use transform="translate(511.376953125 0.203125)" xlink:href="#ArialMT-74"/>
     <use transform="translate(539.16015625 0.203125)" xlink:href="#ArialMT-61"/>
     <use transform="translate(594.775390625 0.203125)" xlink:href="#ArialMT-73"/>
     <use transform="translate(644.775390625 0.203125)" xlink:href="#ArialMT-65"/>
     <use transform="translate(700.390625 0.203125)" xlink:href="#ArialMT-74"/>
     <use transform="translate(728.173828125 0.203125)" xlink:href="#ArialMT-20"/>
     <use transform="translate(755.95703125 0.203125)" xlink:href="#ArialMT-6f"/>
     <use transform="translate(811.572265625 0.203125)" xlink:href="#ArialMT-70"/>
     <use transform="translate(867.1875 0.203125)" xlink:href="#ArialMT-74"/>
     <use transform="translate(894.970703125 0.203125)" xlink:href="#ArialMT-69"/>
     <use transform="translate(917.1875 0.203125)" xlink:href="#ArialMT-6d"/>
     <use transform="translate(1000.48828125 0.203125)" xlink:href="#ArialMT-69"/>
     <use transform="translate(1022.70507812 0.203125)" xlink:href="#ArialMT-7a"/>
     <use transform="translate(1072.70507812 0.203125)" xlink:href="#ArialMT-69"/>
     <use transform="translate(1094.921875 0.203125)" xlink:href="#ArialMT-6e"/>
     <use transform="translate(1150.53710938 0.203125)" xlink:href="#ArialMT-67"/>
     <use transform="translate(1206.15234375 0.203125)" xlink:href="#ArialMT-20"/>
     <use transform="translate(1233.93554688 0.203125)" xlink:href="#ArialMT-66"/>
     <use transform="translate(1261.71875 0.203125)" xlink:href="#ArialMT-6f"/>
     <use transform="translate(1317.33398438 0.203125)" xlink:href="#ArialMT-72"/>
     <use transform="translate(1350.63476562 0.203125)" xlink:href="#ArialMT-20"/>
     <use transform="translate(1378.41796875 0.203125)" xlink:href="#ArialMT-74"/>
     <use transform="translate(1406.20117188 0.203125)" xlink:href="#ArialMT-6f"/>
     <use transform="translate(1461.81640625 0.203125)" xlink:href="#ArialMT-6e"/>
     <use transform="translate(1517.43164062 0.203125)" xlink:href="#ArialMT-61"/>
     <use transform="translate(1573.046875 0.203125)" xlink:href="#ArialMT-6c"/>
     <use transform="translate(1595.26367188 0.203125)" xlink:href="#ArialMT-69"/>
     <use transform="translate(1617.48046875 0.203125)" xlink:href="#ArialMT-74"/>
     <use transform="translate(1645.26367188 0.203125)" xlink:href="#ArialMT-79"/>
     <use transform="translate(1695.26367188 0.203125)" xlink:href="#ArialMT-20"/>
     <use transform="translate(1723.046875 0.203125)" xlink:href="#ArialMT-77"/>
     <use transform="translate(1795.26367188 0.203125)" xlink:href="#ArialMT-69"/>
     <use transform="translate(1817.48046875 0.203125)" xlink:href="#ArialMT-74"/>
     <use transform="translate(1845.26367188 0.203125)" xlink:href="#ArialMT-68"/>
     <use transform="translate(1900.87890625 0.203125)" xlink:href="#ArialMT-20"/>
     <use transform="translate(1928.66210938 0.203125)" xlink:href="#Cmmi10-bf"/>
     <use transform="translate(1972.36328125 0.203125)" xlink:href="#ArialMT-3d"/>
     <use transform="translate(2030.76171875 0.203125)" xlink:href="#ArialMT-30"/>
     <use transform="translate(2086.37695312 0.203125)" xlink:href="#ArialMT-2e"/>
     <use transform="translate(2114.16015625 0.203125)" xlink:href="#ArialMT-32"/>
    </g>
   </g>
   <g id="legend_1">
    <g id="line2d_15">
     <path d="
M734.915 186.226
L766.915 186.226" style="fill:none;opacity:0.75;stroke:#003fff;stroke-linecap:round;stroke-width:4;"/>
    </g>
    <g id="line2d_16"/>
    <g id="text_15">
     <!-- melodicity -->
     <defs>
      <path d="
M52.3906 36.5312
L38.875 34.0781
Q38.1875 38.1406 35.7656 40.1875
Q33.3438 42.2344 29.5 42.2344
Q24.3594 42.2344 21.3125 38.6875
Q18.2656 35.1562 18.2656 26.8594
Q18.2656 17.625 21.3594 13.8125
Q24.4688 10.0156 29.6875 10.0156
Q33.5938 10.0156 36.0781 12.2344
Q38.5781 14.4531 39.5938 19.875
L53.0781 17.5781
Q50.9844 8.29688 45.0156 3.5625
Q39.0625 -1.17188 29.0469 -1.17188
Q17.6719 -1.17188 10.9062 6
Q4.15625 13.1875 4.15625 25.875
Q4.15625 38.7188 10.9375 45.875
Q17.7188 53.0312 29.2969 53.0312
Q38.7656 53.0312 44.3594 48.9531
Q49.9531 44.875 52.3906 36.5312" id="Arial-BoldMT-63"/>
      <path d="
M54.7344 0
L42 0
L42 7.625
Q38.8125 3.17188 34.4844 1
Q30.1719 -1.17188 25.7812 -1.17188
Q16.8438 -1.17188 10.4688 6.03125
Q4.10938 13.2344 4.10938 26.125
Q4.10938 39.3125 10.2969 46.1719
Q16.5 53.0312 25.9844 53.0312
Q34.6719 53.0312 41.0156 45.7969
L41.0156 71.5781
L54.7344 71.5781
z

M18.1094 27.0469
Q18.1094 18.75 20.4062 15.0469
Q23.7344 9.67188 29.6875 9.67188
Q34.4219 9.67188 37.7344 13.6875
Q41.0625 17.7188 41.0625 25.7344
Q41.0625 34.6719 37.8438 38.5938
Q34.625 42.5312 29.5938 42.5312
Q24.7031 42.5312 21.4062 38.6406
Q18.1094 34.7656 18.1094 27.0469" id="Arial-BoldMT-64"/>
      <path d="
M37.2031 16.5
L50.875 14.2031
Q48.25 6.6875 42.5469 2.75
Q36.8594 -1.17188 28.3281 -1.17188
Q14.7969 -1.17188 8.29688 7.67188
Q3.17188 14.75 3.17188 25.5312
Q3.17188 38.4219 9.90625 45.7188
Q16.6562 53.0312 26.9531 53.0312
Q38.5312 53.0312 45.2188 45.3906
Q51.9062 37.75 51.6094 21.9688
L17.2344 21.9688
Q17.3906 15.875 20.5625 12.4688
Q23.7344 9.07812 28.4688 9.07812
Q31.6875 9.07812 33.875 10.8281
Q36.0781 12.5938 37.2031 16.5
M37.9844 30.375
Q37.8438 36.3281 34.9062 39.4219
Q31.9844 42.5312 27.7812 42.5312
Q23.2969 42.5312 20.3594 39.2656
Q17.4375 35.9844 17.4844 30.375
z
" id="Arial-BoldMT-65"/>
      <path d="
M30.9531 51.8594
L30.9531 40.9219
L21.5781 40.9219
L21.5781 20.0156
Q21.5781 13.6719 21.8438 12.625
Q22.125 11.5781 23.0781 10.8906
Q24.0312 10.2031 25.3906 10.2031
Q27.2969 10.2031 30.9062 11.5312
L32.0781 0.875
Q27.2969 -1.17188 21.2344 -1.17188
Q17.5312 -1.17188 14.5469 0.0625
Q11.5781 1.3125 10.1875 3.29688
Q8.79688 5.28125 8.25 8.64062
Q7.8125 11.0312 7.8125 18.3125
L7.8125 40.9219
L1.51562 40.9219
L1.51562 51.8594
L7.8125 51.8594
L7.8125 62.1562
L21.5781 70.1719
L21.5781 51.8594
z
" id="Arial-BoldMT-74"/>
      <path d="
M7.17188 58.8906
L7.17188 71.5781
L20.9062 71.5781
L20.9062 58.8906
z

M7.17188 0
L7.17188 51.8594
L20.9062 51.8594
L20.9062 0
z
" id="Arial-BoldMT-69"/>
      <path d="
M0.6875 51.8594
L15.2812 51.8594
L27.6875 15.0469
L39.7969 51.8594
L54 51.8594
L35.6875 1.95312
L32.4219 -7.07812
Q30.6094 -11.625 28.9688 -14.0156
Q27.3438 -16.4062 25.2188 -17.8906
Q23.0938 -19.3906 19.9844 -20.2188
Q16.8906 -21.0469 12.9844 -21.0469
Q9.03125 -21.0469 5.21875 -20.2188
L4 -9.46875
Q7.23438 -10.1094 9.8125 -10.1094
Q14.5938 -10.1094 16.8906 -7.29688
Q19.1875 -4.5 20.4062 -0.140625
z
" id="Arial-BoldMT-79"/>
      <path d="
M7.17188 0
L7.17188 71.5781
L20.9062 71.5781
L20.9062 0
z
" id="Arial-BoldMT-6c"/>
      <path d="
M6.15625 51.8594
L18.7969 51.8594
L18.7969 44.7812
Q25.5938 53.0312 34.9688 53.0312
Q39.9375 53.0312 43.5938 50.9688
Q47.2656 48.9219 49.6094 44.7812
Q53.0312 48.9219 56.9844 50.9688
Q60.9375 53.0312 65.4375 53.0312
Q71.1406 53.0312 75.0938 50.7031
Q79.0469 48.3906 81 43.8906
Q82.4219 40.5781 82.4219 33.1562
L82.4219 0
L68.7031 0
L68.7031 29.6406
Q68.7031 37.3594 67.2812 39.5938
Q65.375 42.5312 61.4219 42.5312
Q58.5469 42.5312 56 40.7656
Q53.4688 39.0156 52.3438 35.625
Q51.2188 32.2344 51.2188 24.9062
L51.2188 0
L37.5 0
L37.5 28.4219
Q37.5 35.9844 36.7656 38.1719
Q36.0312 40.375 34.4844 41.4531
Q32.9531 42.5312 30.3281 42.5312
Q27.1562 42.5312 24.6094 40.8125
Q22.0781 39.1094 20.9688 35.8906
Q19.875 32.6719 19.875 25.2031
L19.875 0
L6.15625 0
z
" id="Arial-BoldMT-6d"/>
      <path d="
M4 26.6562
Q4 33.5 7.375 39.8906
Q10.75 46.2969 16.9219 49.6562
Q23.0938 53.0312 30.7188 53.0312
Q42.4844 53.0312 50 45.3906
Q57.5156 37.75 57.5156 26.0781
Q57.5156 14.3125 49.9219 6.5625
Q42.3281 -1.17188 30.8125 -1.17188
Q23.6875 -1.17188 17.2188 2.04688
Q10.75 5.28125 7.375 11.5
Q4 17.7188 4 26.6562
M18.0625 25.9219
Q18.0625 18.2188 21.7188 14.1094
Q25.3906 10.0156 30.7656 10.0156
Q36.1406 10.0156 39.7656 14.1094
Q43.4062 18.2188 43.4062 26.0312
Q43.4062 33.6406 39.7656 37.7344
Q36.1406 41.8438 30.7656 41.8438
Q25.3906 41.8438 21.7188 37.7344
Q18.0625 33.6406 18.0625 25.9219" id="Arial-BoldMT-6f"/>
     </defs>
     <g style="fill:#262626;" transform="translate(779.715 191.82625)scale(0.16 -0.16)">
      <use xlink:href="#Arial-BoldMT-6d"/>
      <use x="88.916015625" xlink:href="#Arial-BoldMT-65"/>
      <use x="144.53125" xlink:href="#Arial-BoldMT-6c"/>
      <use x="172.314453125" xlink:href="#Arial-BoldMT-6f"/>
      <use x="233.3984375" xlink:href="#Arial-BoldMT-64"/>
      <use x="294.482421875" xlink:href="#Arial-BoldMT-69"/>
      <use x="322.265625" xlink:href="#Arial-BoldMT-63"/>
      <use x="377.880859375" xlink:href="#Arial-BoldMT-69"/>
      <use x="405.6640625" xlink:href="#Arial-BoldMT-74"/>
      <use x="438.96484375" xlink:href="#Arial-BoldMT-79"/>
     </g>
    </g>
    <g id="line2d_17">
     <path d="
M734.915 209.241
L766.915 209.241" style="fill:none;opacity:0.75;stroke:#03ed3a;stroke-linecap:round;stroke-width:4;"/>
    </g>
    <g id="line2d_18"/>
    <g id="text_16">
     <!-- ratio_of_steps -->
     <defs>
      <path d="
M2.34375 14.7969
L16.1094 16.8906
Q17 12.8906 19.6719 10.8125
Q22.3594 8.73438 27.2031 8.73438
Q32.5156 8.73438 35.2031 10.6875
Q37.0156 12.0625 37.0156 14.3594
Q37.0156 15.9219 36.0312 16.9375
Q35.0156 17.9219 31.4531 18.75
Q14.8438 22.4062 10.4062 25.4375
Q4.25 29.6406 4.25 37.1094
Q4.25 43.8438 9.5625 48.4375
Q14.8906 53.0312 26.0781 53.0312
Q36.7188 53.0312 41.8906 49.5625
Q47.0781 46.0938 49.0312 39.3125
L36.0781 36.9219
Q35.25 39.9375 32.9219 41.5469
Q30.6094 43.1719 26.3125 43.1719
Q20.9062 43.1719 18.5625 41.6562
Q17 40.5781 17 38.875
Q17 37.4062 18.3594 36.375
Q20.2188 35.0156 31.1719 32.5156
Q42.1406 30.0312 46.4844 26.4219
Q50.7812 22.75 50.7812 16.2188
Q50.7812 9.07812 44.8281 3.95312
Q38.875 -1.17188 27.2031 -1.17188
Q16.6094 -1.17188 10.4219 3.125
Q4.25 7.42188 2.34375 14.7969" id="Arial-BoldMT-73"/>
      <path d="
M20.3125 0
L6.59375 0
L6.59375 51.8594
L19.3438 51.8594
L19.3438 44.4844
Q22.6094 49.7031 25.2188 51.3594
Q27.8281 53.0312 31.1562 53.0312
Q35.8438 53.0312 40.1875 50.4375
L35.9375 38.4844
Q32.4688 40.7188 29.5 40.7188
Q26.6094 40.7188 24.6094 39.125
Q22.6094 37.5469 21.4531 33.3906
Q20.3125 29.25 20.3125 16.0156
z
" id="Arial-BoldMT-72"/>
      <path d="
M6.78125 51.8594
L19.5781 51.8594
L19.5781 44.2344
Q22.0781 48.1406 26.3125 50.5781
Q30.5625 53.0312 35.75 53.0312
Q44.7812 53.0312 51.0781 45.9531
Q57.375 38.875 57.375 26.2188
Q57.375 13.2344 51.0156 6.03125
Q44.6719 -1.17188 35.6406 -1.17188
Q31.3438 -1.17188 27.8438 0.53125
Q24.3594 2.25 20.5156 6.39062
L20.5156 -19.7344
L6.78125 -19.7344
z

M20.3594 26.8125
Q20.3594 18.0625 23.8281 13.8906
Q27.2969 9.71875 32.2812 9.71875
Q37.0625 9.71875 40.2344 13.5469
Q43.4062 17.3906 43.4062 26.125
Q43.4062 34.2812 40.125 38.2344
Q36.8594 42.1875 32.0312 42.1875
Q27 42.1875 23.6719 38.2969
Q20.3594 34.4219 20.3594 26.8125" id="Arial-BoldMT-70"/>
      <path d="
M1.17188 51.8594
L8.79688 51.8594
L8.79688 55.7656
Q8.79688 62.3125 10.1875 65.5312
Q11.5781 68.75 15.3125 70.7656
Q19.0469 72.7969 24.75 72.7969
Q30.6094 72.7969 36.2344 71.0469
L34.375 61.4688
Q31.1094 62.25 28.0781 62.25
Q25.0938 62.25 23.7969 60.8594
Q22.5156 59.4688 22.5156 55.5156
L22.5156 51.8594
L32.7656 51.8594
L32.7656 41.0625
L22.5156 41.0625
L22.5156 0
L8.79688 0
L8.79688 41.0625
L1.17188 41.0625
z
" id="Arial-BoldMT-66"/>
      <path d="
M17.4375 36.0312
L4.98438 38.2812
Q7.07812 45.7969 12.2031 49.4062
Q17.3281 53.0312 27.4375 53.0312
Q36.625 53.0312 41.1094 50.8594
Q45.6094 48.6875 47.4375 45.3438
Q49.2656 42 49.2656 33.0625
L49.125 17.0469
Q49.125 10.2031 49.7812 6.95312
Q50.4375 3.71875 52.25 0
L38.6719 0
Q38.1406 1.375 37.3594 4.04688
Q37.0156 5.28125 36.8594 5.67188
Q33.3438 2.25 29.3438 0.53125
Q25.3438 -1.17188 20.7969 -1.17188
Q12.7969 -1.17188 8.17188 3.17188
Q3.5625 7.51562 3.5625 14.1562
Q3.5625 18.5625 5.65625 22
Q7.76562 25.4375 11.5469 27.2656
Q15.3281 29.1094 22.4688 30.4688
Q32.0781 32.2812 35.7969 33.8438
L35.7969 35.2031
Q35.7969 39.1562 33.8438 40.8438
Q31.8906 42.5312 26.4688 42.5312
Q22.7969 42.5312 20.75 41.0938
Q18.7031 39.6562 17.4375 36.0312
M35.7969 24.9062
Q33.1562 24.0312 27.4375 22.7969
Q21.7344 21.5781 19.9688 20.4062
Q17.2812 18.5 17.2812 15.5781
Q17.2812 12.7031 19.4219 10.5938
Q21.5781 8.5 24.9062 8.5
Q28.6094 8.5 31.9844 10.9375
Q34.4688 12.7969 35.25 15.4844
Q35.7969 17.2344 35.7969 22.1719
z
" id="Arial-BoldMT-61"/>
      <path d="
M-0.921875 -19.7812
L-0.921875 -10.8906
L56.1094 -10.8906
L56.1094 -19.7812
z
" id="Arial-BoldMT-5f"/>
     </defs>
     <g style="fill:#262626;" transform="translate(779.715 214.84125)scale(0.16 -0.16)">
      <use xlink:href="#Arial-BoldMT-72"/>
      <use x="38.916015625" xlink:href="#Arial-BoldMT-61"/>
      <use x="94.53125" xlink:href="#Arial-BoldMT-74"/>
      <use x="127.83203125" xlink:href="#Arial-BoldMT-69"/>
      <use x="155.615234375" xlink:href="#Arial-BoldMT-6f"/>
      <use x="216.69921875" xlink:href="#Arial-BoldMT-5f"/>
      <use x="272.314453125" xlink:href="#Arial-BoldMT-6f"/>
      <use x="333.3984375" xlink:href="#Arial-BoldMT-66"/>
      <use x="366.69921875" xlink:href="#Arial-BoldMT-5f"/>
      <use x="422.314453125" xlink:href="#Arial-BoldMT-73"/>
      <use x="477.9296875" xlink:href="#Arial-BoldMT-74"/>
      <use x="511.23046875" xlink:href="#Arial-BoldMT-65"/>
      <use x="566.845703125" xlink:href="#Arial-BoldMT-70"/>
      <use x="627.9296875" xlink:href="#Arial-BoldMT-73"/>
     </g>
    </g>
    <g id="line2d_19">
     <path d="
M734.915 231.859
L766.915 231.859" style="fill:none;opacity:0.75;stroke:#e8000b;stroke-linecap:round;stroke-width:4;"/>
    </g>
    <g id="line2d_20"/>
    <g id="text_17">
     <!-- tonality -->
     <defs>
      <path d="
M54.3438 0
L40.625 0
L40.625 26.4688
Q40.625 34.8594 39.75 37.3281
Q38.875 39.7969 36.8906 41.1562
Q34.9062 42.5312 32.125 42.5312
Q28.5625 42.5312 25.7344 40.5781
Q22.9062 38.625 21.8438 35.3906
Q20.7969 32.1719 20.7969 23.4844
L20.7969 0
L7.07812 0
L7.07812 51.8594
L19.8281 51.8594
L19.8281 44.2344
Q26.6094 53.0312 36.9219 53.0312
Q41.4531 53.0312 45.2031 51.3906
Q48.9688 49.75 50.8906 47.2031
Q52.8281 44.6719 53.5781 41.4531
Q54.3438 38.2344 54.3438 32.2344
z
" id="Arial-BoldMT-6e"/>
     </defs>
     <g style="fill:#262626;" transform="translate(779.715 237.45875)scale(0.16 -0.16)">
      <use xlink:href="#Arial-BoldMT-74"/>
      <use x="33.30078125" xlink:href="#Arial-BoldMT-6f"/>
      <use x="94.384765625" xlink:href="#Arial-BoldMT-6e"/>
      <use x="155.46875" xlink:href="#Arial-BoldMT-61"/>
      <use x="211.083984375" xlink:href="#Arial-BoldMT-6c"/>
      <use x="238.8671875" xlink:href="#Arial-BoldMT-69"/>
      <use x="266.650390625" xlink:href="#Arial-BoldMT-74"/>
      <use x="299.951171875" xlink:href="#Arial-BoldMT-79"/>
     </g>
    </g>
   </g>
  </g>
 </g>
 <defs>
  <clipPath id="pe8a5247557">
   <rect height="334.8" width="669.6" x="108.0" y="43.2"/>
  </clipPath>
 </defs>
</svg>
